<svg width="14" height="14" viewBox="0 0 14 14" fill="none" xmlns="http://www.w3.org/2000/svg">
    <path fill-rule="evenodd" clip-rule="evenodd" d="M0.333267 9.66669C0.333267 11.8758 2.12413 13.6667 4.33327 13.6667L9.6666 13.6667C11.8757 13.6667 13.6666 11.8758 13.6666 9.66669L13.6666 4.33335C13.6666 2.12421 11.8757 0.333352 9.6666 0.333352L4.33326 0.333354C2.12412 0.333354 0.333266 2.12422 0.333266 4.33335L0.333267 9.66669ZM9.6666 7.66669C8.93022 7.66669 8.33327 7.06973 8.33327 6.33335L8.33327 5.00002C8.33327 4.26364 8.93022 3.66669 9.6666 3.66669C10.403 3.66669 10.9999 4.26364 10.9999 5.00002L10.9999 6.33335C10.9999 7.06973 10.403 7.66669 9.6666 7.66669ZM2.99993 9.00002C2.99993 9.7364 3.59689 10.3334 4.33327 10.3334C5.06965 10.3334 5.6666 9.7364 5.6666 9.00002L5.6666 5.00002C5.6666 4.26364 5.06965 3.66669 4.33327 3.66669C3.59689 3.66669 2.99993 4.26364 2.99993 5.00002L2.99993 9.00002Z" fill="#2A313C"/>
</svg>
