<svg width="24" height="24" viewBox="0 0 24 24" fill="none" xmlns="http://www.w3.org/2000/svg">
<path d="M15.7318 6.57904L19.4723 2.41054C19.5121 2.36678 19.559 2.3302 19.6104 2.30303C19.6617 2.27587 19.7163 2.25869 19.7708 2.25254C19.8253 2.2464 19.8786 2.25142 19.9275 2.26729C19.9763 2.28317 20.0197 2.30957 20.055 2.34488L21.4054 3.69984C21.4406 3.73519 21.4669 3.77871 21.4828 3.82773C21.4986 3.87675 21.5036 3.93025 21.4975 3.98495C21.4913 4.03966 21.4742 4.09443 21.4471 4.14591C21.4201 4.19739 21.3836 4.24451 21.34 4.28439L17.1208 7.97273L15.7318 6.57904ZM18.6674 11.3734L12.3421 5.02705C11.8934 4.57819 11.2526 4.35921 10.5603 4.41812C9.86799 4.47704 9.18064 4.80904 8.64903 5.34132L8.03261 5.95978L17.7378 15.6971L18.3542 15.0787C18.8847 14.5453 19.2156 13.8557 19.2744 13.1611C19.3331 12.4664 19.1148 11.8235 18.6674 11.3734ZM2.11239 11.8996C1.96254 12.05 1.96254 12.2937 2.11239 12.4441L3.26118 13.5967C3.41103 13.747 3.654 13.747 3.80385 13.5967L4.80963 12.5853C4.93182 12.4627 5.08995 12.3862 5.24924 12.3726C5.40852 12.3591 5.55592 12.4096 5.659 12.513C5.76208 12.6164 5.8124 12.7643 5.79889 12.9241C5.78538 13.0839 5.70914 13.2426 5.58696 13.3652L4.58118 14.3766C4.43133 14.5269 4.43133 14.7707 4.58118 14.9211L6.52543 16.8741C6.67529 17.0245 6.91825 17.0245 7.06811 16.8741L9.01818 14.9173C9.14037 14.7947 9.2985 14.7182 9.45778 14.7046C9.61707 14.6911 9.76447 14.7416 9.86755 14.845C9.97063 14.9484 10.0209 15.0963 10.0074 15.2561C9.99393 15.4159 9.91769 15.5746 9.79551 15.6972L7.84575 17.6537C7.69589 17.8041 7.69589 18.0478 7.84575 18.1982L8.94997 19.3037C9.09982 19.4541 9.34279 19.4541 9.49264 19.3037L10.0323 18.7598C10.1545 18.6372 10.3126 18.5607 10.4719 18.5472C10.6312 18.5336 10.7786 18.5841 10.8817 18.6875C10.9847 18.7909 11.0351 18.9388 11.0215 19.0986C11.008 19.2585 10.9318 19.4171 10.8096 19.5397L10.2697 20.0839C10.1198 20.2343 10.1198 20.4781 10.2697 20.6284L11.2752 21.6372C11.425 21.7876 11.668 21.7876 11.8178 21.6372L16.8166 16.6219L7.1112 6.88424L2.11239 11.8996Z" fill="#11152A"/>
</svg>
