<svg viewBox="0 0 22 19" fill="none" xmlns="http://www.w3.org/2000/svg">
    <path d="M3.89622 1.02219C2.47994 1.26022 1.33343 2.31152 0.956545 3.71193C0.841498 4.13245 0.829596 5.00126 0.932742 5.41385C1.0954 6.06049 1.385 6.59606 1.82932 7.07212C2.28951 7.56008 2.84888 7.90126 3.53124 8.10359C3.79704 8.18293 3.92399 8.19483 4.47146 8.19086C5.14191 8.19086 5.38787 8.14722 5.87186 7.93696L6.07816 7.84969L6.32809 8.02028C7.69676 8.97239 9.13288 9.98402 9.13288 9.99989C9.13288 10.0158 7.69676 11.0274 6.32809 11.9795L6.07816 12.1501L5.87186 12.0628C5.38787 11.8526 5.14191 11.8089 4.47146 11.8089C3.92399 11.805 3.79704 11.8169 3.53124 11.8962C2.40059 12.2294 1.51988 13.0149 1.1073 14.0504C0.912907 14.5344 0.865301 14.8121 0.865301 15.4151C0.869268 16.0657 0.944644 16.4029 1.19854 16.9385C1.6627 17.9104 2.46804 18.5888 3.50743 18.8903C3.92399 19.0093 4.72139 19.0371 5.16968 18.9459C6.32809 18.7118 7.26831 17.966 7.7642 16.8869C8.18869 15.9744 8.18869 14.816 7.7642 13.8996C7.68883 13.737 7.63329 13.5902 7.64519 13.5743C7.67693 13.5148 10.0969 11.8446 10.1286 11.8526C10.1485 11.8605 11.7433 12.9713 13.6753 14.3241C15.6073 15.6729 17.3013 16.8353 17.4362 16.8988C17.94 17.1368 18.5787 17.232 19.1262 17.1448C19.507 17.0853 20.0426 16.8829 20.3401 16.6846C20.5901 16.5179 21.0344 16.1054 21.1018 15.9705C21.1415 15.8991 20.7924 15.6452 16.9442 12.9554C14.6353 11.3408 12.747 10.0118 12.747 9.99989C12.747 9.98799 14.6353 8.65899 16.9442 7.04435C20.7924 4.35461 21.1415 4.10071 21.1018 4.0293C21.082 3.98567 20.9511 3.84285 20.8202 3.71193C19.9077 2.81535 18.5509 2.57335 17.4362 3.10099C17.3013 3.16446 15.6073 4.32684 13.6753 5.67568C11.7433 7.02848 10.1485 8.13929 10.1286 8.14722C10.0969 8.15516 7.67693 6.48498 7.64519 6.42547C7.63329 6.40961 7.68883 6.26282 7.7642 6.10017C8.18869 5.18375 8.18869 4.02534 7.7642 3.11289C7.27227 2.04175 6.33206 1.29196 5.19745 1.0579C4.91578 0.998388 4.15408 0.978552 3.89622 1.02219ZM5.13794 2.85899C5.95914 3.1724 6.46297 4.04914 6.31619 4.91398C6.19717 5.62014 5.68144 6.20331 4.99115 6.40961C4.73726 6.48895 4.21359 6.48895 3.97159 6.41357C3.50743 6.27075 3.07105 5.93355 2.85682 5.54873C2.26174 4.48156 2.79334 3.16049 3.95572 2.81138C4.28103 2.71617 4.82057 2.73601 5.13794 2.85899ZM5.06256 13.61C5.32043 13.6933 5.57829 13.8599 5.81236 14.09C6.59389 14.8716 6.49868 16.1966 5.614 16.871C4.66585 17.5891 3.30511 17.2677 2.80128 16.2085C2.44423 15.4627 2.58705 14.6454 3.17022 14.0623C3.65422 13.5743 4.41195 13.3958 5.06256 13.61Z" fill="#0A0E14"/>
</svg>
