<svg viewBox="0 0 5 18" fill="none" xmlns="http://www.w3.org/2000/svg">
    <path fill-rule="evenodd" clip-rule="evenodd" d="M1 2.25C1 1.55964 1.55964 1 2.25 1C2.94036 1 3.5 1.55964 3.5 2.25C3.5 2.94036 2.94036 3.5 2.25 3.5C1.55964 3.5 1 2.94036 1 2.25ZM1 8.75C1 8.05964 1.55964 7.5 2.25 7.5C2.94036 7.5 3.5 8.05964 3.5 8.75C3.5 9.44036 2.94036 10 2.25 10C1.55964 10 1 9.44036 1 8.75ZM2.25 14C1.55964 14 1 14.5596 1 15.25C1 15.9404 1.55964 16.5 2.25 16.5C2.94036 16.5 3.5 15.9404 3.5 15.25C3.5 14.5596 2.94036 14 2.25 14Z" fill="#0A0E14"/>
    <path d="M2.25 0.25C1.14543 0.25 0.25 1.14543 0.25 2.25H1.75C1.75 1.97386 1.97386 1.75 2.25 1.75V0.25ZM4.25 2.25C4.25 1.14543 3.35457 0.25 2.25 0.25V1.75C2.52614 1.75 2.75 1.97386 2.75 2.25H4.25ZM2.25 4.25C3.35457 4.25 4.25 3.35457 4.25 2.25H2.75C2.75 2.52614 2.52614 2.75 2.25 2.75V4.25ZM0.25 2.25C0.25 3.35457 1.14543 4.25 2.25 4.25V2.75C1.97386 2.75 1.75 2.52614 1.75 2.25H0.25ZM2.25 6.75C1.14543 6.75 0.25 7.64543 0.25 8.75H1.75C1.75 8.47386 1.97386 8.25 2.25 8.25V6.75ZM4.25 8.75C4.25 7.64543 3.35457 6.75 2.25 6.75V8.25C2.52614 8.25 2.75 8.47386 2.75 8.75H4.25ZM2.25 10.75C3.35457 10.75 4.25 9.85457 4.25 8.75H2.75C2.75 9.02614 2.52614 9.25 2.25 9.25V10.75ZM0.25 8.75C0.25 9.85457 1.14543 10.75 2.25 10.75V9.25C1.97386 9.25 1.75 9.02614 1.75 8.75H0.25ZM1.75 15.25C1.75 14.9739 1.97386 14.75 2.25 14.75V13.25C1.14543 13.25 0.25 14.1454 0.25 15.25H1.75ZM2.25 15.75C1.97386 15.75 1.75 15.5261 1.75 15.25H0.25C0.25 16.3546 1.14543 17.25 2.25 17.25V15.75ZM2.75 15.25C2.75 15.5261 2.52614 15.75 2.25 15.75V17.25C3.35457 17.25 4.25 16.3546 4.25 15.25H2.75ZM2.25 14.75C2.52614 14.75 2.75 14.9739 2.75 15.25H4.25C4.25 14.1454 3.35457 13.25 2.25 13.25V14.75Z" fill="#0A0E14"/>
</svg>
