<svg viewBox="0 0 6 22" fill="none" xmlns="http://www.w3.org/2000/svg">
    <path d="M4.25 11C4.25 11.6904 3.69036 12.25 3 12.25V13.75C4.51878 13.75 5.75 12.5188 5.75 11H4.25ZM3 12.25C2.30964 12.25 1.75 11.6904 1.75 11H0.25C0.25 12.5188 1.48122 13.75 3 13.75V12.25ZM1.75 11C1.75 10.3096 2.30964 9.75 3 9.75V8.25C1.48122 8.25 0.25 9.48122 0.25 11H1.75ZM3 9.75C3.69036 9.75 4.25 10.3096 4.25 11H5.75C5.75 9.48122 4.51878 8.25 3 8.25V9.75ZM4.25 3C4.25 3.69036 3.69036 4.25 3 4.25V5.75C4.51878 5.75 5.75 4.51878 5.75 3H4.25ZM3 4.25C2.30964 4.25 1.75 3.69036 1.75 3H0.25C0.25 4.51878 1.48122 5.75 3 5.75V4.25ZM1.75 3C1.75 2.30964 2.30964 1.75 3 1.75V0.25C1.48122 0.25 0.25 1.48122 0.25 3H1.75ZM3 1.75C3.69036 1.75 4.25 2.30964 4.25 3H5.75C5.75 1.48122 4.51878 0.25 3 0.25V1.75ZM4.25 19C4.25 19.6904 3.69036 20.25 3 20.25V21.75C4.51878 21.75 5.75 20.5188 5.75 19H4.25ZM3 20.25C2.30964 20.25 1.75 19.6904 1.75 19H0.25C0.25 20.5188 1.48122 21.75 3 21.75V20.25ZM1.75 19C1.75 18.3096 2.30964 17.75 3 17.75V16.25C1.48122 16.25 0.25 17.4812 0.25 19H1.75ZM3 17.75C3.69036 17.75 4.25 18.3096 4.25 19H5.75C5.75 17.4812 4.51878 16.25 3 16.25V17.75Z" fill="#0A0E14"/>
</svg>
