<svg viewBox="0 0 20 20" fill="none" xmlns="http://www.w3.org/2000/svg">
    <path fill-rule="evenodd" clip-rule="evenodd" d="M15.6253 8.75C16.2006 8.75 16.667 9.21637 16.667 9.79167C16.667 10.367 16.2006 10.8333 15.6253 10.8333C15.05 10.8333 14.5837 10.367 14.5837 9.79167C14.5837 9.21637 15.05 8.75 15.6253 8.75ZM10.2087 8.75C10.784 8.75 11.2503 9.21637 11.2503 9.79167C11.2503 10.367 10.784 10.8333 10.2087 10.8333C9.63336 10.8333 9.16699 10.367 9.16699 9.79167C9.16699 9.21637 9.63336 8.75 10.2087 8.75ZM5.83366 9.79167C5.83366 9.21637 5.36729 8.75 4.79199 8.75C4.2167 8.75 3.75033 9.21637 3.75033 9.79167C3.75033 10.367 4.2167 10.8333 4.79199 10.8333C5.36729 10.8333 5.83366 10.367 5.83366 9.79167Z" fill="#000F1D"/>
    <path d="M17.417 9.79167C17.417 8.80216 16.6148 8 15.6253 8L15.6253 9.5C15.7864 9.5 15.917 9.63058 15.917 9.79167L17.417 9.79167ZM15.6253 11.5833C16.6148 11.5833 17.417 10.7812 17.417 9.79167L15.917 9.79167C15.917 9.95275 15.7864 10.0833 15.6253 10.0833L15.6253 11.5833ZM13.8337 9.79167C13.8337 10.7812 14.6358 11.5833 15.6253 11.5833L15.6253 10.0833C15.4642 10.0833 15.3337 9.95275 15.3337 9.79167L13.8337 9.79167ZM15.6253 8C14.6358 8 13.8337 8.80216 13.8337 9.79167L15.3337 9.79167C15.3337 9.63058 15.4642 9.5 15.6253 9.5L15.6253 8ZM12.0003 9.79167C12.0003 8.80216 11.1982 8 10.2087 8L10.2087 9.5C10.3697 9.5 10.5003 9.63058 10.5003 9.79167L12.0003 9.79167ZM10.2087 11.5833C11.1982 11.5833 12.0003 10.7812 12.0003 9.79167L10.5003 9.79167C10.5003 9.95275 10.3697 10.0833 10.2087 10.0833L10.2087 11.5833ZM8.41699 9.79167C8.41699 10.7812 9.21915 11.5833 10.2087 11.5833L10.2087 10.0833C10.0476 10.0833 9.91699 9.95275 9.91699 9.79167L8.41699 9.79167ZM10.2087 8C9.21915 8 8.41699 8.80216 8.41699 9.79167L9.91699 9.79167C9.91699 9.63058 10.0476 9.5 10.2087 9.5L10.2087 8ZM4.79199 9.5C4.95308 9.5 5.08366 9.63058 5.08366 9.79167L6.58366 9.79167C6.58366 8.80216 5.7815 8 4.79199 8L4.79199 9.5ZM4.50033 9.79167C4.50033 9.63058 4.63091 9.5 4.79199 9.5L4.79199 8C3.80248 8 3.00033 8.80216 3.00033 9.79167L4.50033 9.79167ZM4.79199 10.0833C4.63091 10.0833 4.50033 9.95275 4.50033 9.79167L3.00033 9.79167C3.00033 10.7812 3.80248 11.5833 4.79199 11.5833L4.79199 10.0833ZM5.08366 9.79167C5.08366 9.95275 4.95308 10.0833 4.79199 10.0833L4.79199 11.5833C5.7815 11.5833 6.58366 10.7812 6.58366 9.79167L5.08366 9.79167Z" fill="#000F1D"/>
</svg>
