<svg viewBox="0 0 22 6" fill="none" xmlns="http://www.w3.org/2000/svg">
    <path d="M11 4.25C10.3096 4.25 9.75 3.69036 9.75 3H8.25C8.25 4.51878 9.48122 5.75 11 5.75V4.25ZM9.75 3C9.75 2.30964 10.3096 1.75 11 1.75V0.25C9.48122 0.25 8.25 1.48122 8.25 3H9.75ZM11 1.75C11.6904 1.75 12.25 2.30964 12.25 3H13.75C13.75 1.48122 12.5188 0.25 11 0.25V1.75ZM12.25 3C12.25 3.69036 11.6904 4.25 11 4.25V5.75C12.5188 5.75 13.75 4.51878 13.75 3H12.25ZM19 4.25C18.3096 4.25 17.75 3.69036 17.75 3H16.25C16.25 4.51878 17.4812 5.75 19 5.75V4.25ZM17.75 3C17.75 2.30964 18.3096 1.75 19 1.75V0.25C17.4812 0.25 16.25 1.48122 16.25 3H17.75ZM19 1.75C19.6904 1.75 20.25 2.30964 20.25 3H21.75C21.75 1.48122 20.5188 0.25 19 0.25V1.75ZM20.25 3C20.25 3.69036 19.6904 4.25 19 4.25V5.75C20.5188 5.75 21.75 4.51878 21.75 3H20.25ZM3 4.25C2.30964 4.25 1.75 3.69036 1.75 3H0.25C0.25 4.51878 1.48122 5.75 3 5.75V4.25ZM1.75 3C1.75 2.30964 2.30964 1.75 3 1.75V0.25C1.48122 0.25 0.25 1.48122 0.25 3H1.75ZM3 1.75C3.69036 1.75 4.25 2.30964 4.25 3H5.75C5.75 1.48122 4.51878 0.25 3 0.25V1.75ZM4.25 3C4.25 3.69036 3.69036 4.25 3 4.25V5.75C4.51878 5.75 5.75 4.51878 5.75 3H4.25Z" fill="#0A0E14"/>
</svg>
