<svg viewBox="0 0 16 22" fill="none" xmlns="http://www.w3.org/2000/svg">
    <path d="M2.99197 5V4.25H2.44539L2.27801 4.77032L2.99197 5ZM13.008 5L13.722 4.77032L13.5546 4.25H13.008V5ZM14.7221 10.3282L14.0081 10.5578L14.0156 10.5814L14.0247 10.6043L14.7221 10.3282ZM1.27795 10.3282L1.97526 10.6043L1.98435 10.5814L1.99191 10.5578L1.27795 10.3282ZM14.2476 14.0968L14.8265 14.5737L14.8432 14.5535L14.8583 14.5322L14.2476 14.0968ZM8.95186 20.526L8.37296 20.0492L8.35633 20.0694L8.34114 20.0907L8.95186 20.526ZM1.75238 14.0968L1.14166 14.5322L1.15685 14.5535L1.17348 14.5737L1.75238 14.0968ZM7.04814 20.526L7.65886 20.0907L7.64367 20.0694L7.62704 20.0492L7.04814 20.526ZM9.25 11C9.25 11.6904 8.69036 12.25 8 12.25V13.75C9.51878 13.75 10.75 12.5188 10.75 11H9.25ZM8 12.25C7.30964 12.25 6.75 11.6904 6.75 11H5.25C5.25 12.5188 6.48122 13.75 8 13.75V12.25ZM6.75 11C6.75 10.3096 7.30964 9.75 8 9.75V8.25C6.48122 8.25 5.25 9.48122 5.25 11H6.75ZM8 9.75C8.69036 9.75 9.25 10.3096 9.25 11H10.75C10.75 9.48122 9.51878 8.25 8 8.25V9.75ZM3 5.75H13V4.25H3V5.75ZM13 0.25H3V1.75H13V0.25ZM15.75 3C15.75 1.48122 14.5188 0.25 13 0.25V1.75C13.6904 1.75 14.25 2.30964 14.25 3H15.75ZM13 5.75C14.5188 5.75 15.75 4.51878 15.75 3H14.25C14.25 3.69036 13.6904 4.25 13 4.25V5.75ZM0.25 3C0.25 4.51878 1.48122 5.75 3 5.75V4.25C2.30964 4.25 1.75 3.69036 1.75 3H0.25ZM1.75 3C1.75 2.30964 2.30964 1.75 3 1.75V0.25C1.48122 0.25 0.25 1.48122 0.25 3H1.75ZM2.99197 5.75H13.008V4.25H2.99197V5.75ZM12.2941 5.22968L14.0081 10.5578L15.436 10.0985L13.722 4.77032L12.2941 5.22968ZM1.99191 10.5578L3.70594 5.22968L2.27801 4.77032L0.563981 10.0985L1.99191 10.5578ZM13.6687 13.62L8.37296 20.0492L9.53076 21.0029L14.8265 14.5737L13.6687 13.62ZM1.17348 14.5737L6.46924 21.0029L7.62704 20.0492L2.33128 13.62L1.17348 14.5737ZM8.34114 20.0907C8.27432 20.1844 8.15298 20.25 8 20.25C7.84702 20.25 7.72568 20.1844 7.65886 20.0907L6.43742 20.9614C7.18696 22.0129 8.81304 22.0129 9.56258 20.9614L8.34114 20.0907ZM0.580636 10.052C-0.0116367 11.5476 0.201439 13.2132 1.14166 14.5322L2.3631 13.6615C1.71271 12.7491 1.57374 11.6182 1.97526 10.6043L0.580636 10.052ZM14.0247 10.6043C14.4263 11.6182 14.2873 12.7491 13.6369 13.6615L14.8583 14.5322C15.7986 13.2132 16.0116 11.5476 15.4194 10.052L14.0247 10.6043ZM7.25 13V21H8.75V13H7.25Z" fill="#0A0E14"/>
</svg>
