<svg viewBox="0 0 14 20" fill="none" xmlns="http://www.w3.org/2000/svg">
    <path fill-rule="evenodd" clip-rule="evenodd" d="M2 4H12C13.1046 4 14 3.10457 14 2C14 0.895431 13.1046 0 12 0H2C0.89543 0 1.35169e-08 0.895431 1.35169e-08 2C1.35169e-08 3.10457 0.895431 4 2 4ZM0.277948 9.32823L1.51994 5.46741C1.67688 5.48893 1.83714 5.50006 2 5.50006H12C12.1629 5.50006 12.3231 5.48893 12.4801 5.46741L13.7221 9.32823C14.2189 10.583 14.0429 11.9812 13.2476 13.0969L7.95186 19.5261C7.89314 19.6085 7.82504 19.6801 7.75 19.741V11.8546C8.48296 11.5579 9 10.8393 9 10C9 8.89543 8.10457 8 7 8C5.89543 8 5 8.89543 5 10C5 10.8393 5.51704 11.5579 6.25 11.8546V19.741C6.17496 19.6801 6.10686 19.6085 6.04814 19.5261L0.752383 13.0969C-0.0429251 11.9812 -0.218946 10.583 0.277948 9.32823Z" fill="#0A0E14"/>
</svg>
