<svg width="44" height="59" viewBox="0 0 44 59" fill="none" xmlns="http://www.w3.org/2000/svg">
    <path d="M6 0.5H29.4289L39.5 10.5711V49C39.5 52.0376 37.0376 54.5 34 54.5H6C2.96243 54.5 0.5 52.0376 0.5 49V6C0.5 2.96243 2.96243 0.5 6 0.5Z" fill="white" stroke="#CBD5E0"/>
    <rect x="16" y="31" width="28" height="28" rx="14" fill="#140A0A"/>
    <path fill-rule="evenodd" clip-rule="evenodd" d="M23.5 48.3333C23.5 50.0822 24.9178 51.5 26.6667 51.5L33.3333 51.5C35.0822 51.5 36.5 50.0822 36.5 48.3333L36.5 45.6667C36.5 43.9178 35.0822 42.5 33.3333 42.5L33 42.5C32.7239 42.5 32.5 42.7239 32.5 43C32.5 43.2761 32.7239 43.5 33 43.5L33.3333 43.5C34.5299 43.5 35.5 44.4701 35.5 45.6667L35.5 48.3333C35.5 49.53 34.5299 50.5 33.3333 50.5L26.6667 50.5C25.47 50.5 24.5 49.53 24.5 48.3333L24.5 45.6667C24.5 44.4701 25.47 43.5 26.6667 43.5L27 43.5C27.2761 43.5 27.5 43.2761 27.5 43C27.5 42.7239 27.2761 42.5 27 42.5L26.6667 42.5C24.9178 42.5 23.5 43.9178 23.5 45.6667L23.5 48.3333ZM27.6464 40.6464C27.4512 40.8417 27.4512 41.1583 27.6464 41.3536C27.8417 41.5488 28.1583 41.5488 28.3536 41.3536L29.5 40.2071L29.5 47C29.5 47.2761 29.7239 47.5 30 47.5C30.2761 47.5 30.5 47.2761 30.5 47L30.5 40.2071L31.6464 41.3536C31.8417 41.5488 32.1583 41.5488 32.3536 41.3536C32.5488 41.1583 32.5488 40.8417 32.3536 40.6464L30.3536 38.6464C30.1583 38.4512 29.8417 38.4512 29.6464 38.6464L27.6464 40.6464Z" fill="white"/>
    <path d="M29 0V7C29 9.20914 30.7909 11 33 11H40V10.364L29.636 0H29Z" fill="#CBD5E0"/>
</svg>
