<svg width="18" height="20" viewBox="0 0 18 20" fill="none" xmlns="http://www.w3.org/2000/svg">
    <path fill-rule="evenodd" clip-rule="evenodd" d="M0 4V16C0 18.2091 1.79086 20 4 20H14C16.2091 20 18 18.2091 18 16V9.65685C18 9.34909 17.9645 9.04498 17.8959 8.75H14C11.3766 8.75 9.25 6.62335 9.25 4V0.10414C8.95502 0.0354679 8.65091 0 8.34314 0H4C1.79086 0 0 1.79086 0 4ZM10.75 0.805133V4C10.75 5.79493 12.2051 7.25 14 7.25H17.1949C17.0833 7.10195 16.961 6.96101 16.8284 6.82843L11.1716 1.17157C11.039 1.03899 10.898 0.916669 10.75 0.805133Z" fill="#140A0A"/>
</svg>
