<svg viewBox="0 0 18 12" fill="none" xmlns="http://www.w3.org/2000/svg">
    <path fill-rule="evenodd" clip-rule="evenodd" d="M10.6667 0.166992H12.3333C13.4982 0.166992 14.477 0.963725 14.7546 2.04199H16.5C16.8452 2.04199 17.125 2.32181 17.125 2.66699C17.125 3.01217 16.8452 3.29199 16.5 3.29199H14.7546C14.477 4.37026 13.4982 5.16699 12.3333 5.16699H10.6667C9.28596 5.16699 8.16667 4.0477 8.16667 2.66699C8.16667 1.28628 9.28596 0.166992 10.6667 0.166992ZM1.5 2.04199C1.15482 2.04199 0.875 2.32181 0.875 2.66699C0.875 3.01217 1.15482 3.29199 1.5 3.29199H5.66667C6.01184 3.29199 6.29167 3.01217 6.29167 2.66699C6.29167 2.32181 6.01184 2.04199 5.66667 2.04199H1.5ZM12.3333 8.70866C11.9882 8.70866 11.7083 8.98848 11.7083 9.33366C11.7083 9.67884 11.9882 9.95866 12.3333 9.95866H16.5C16.8452 9.95866 17.125 9.67884 17.125 9.33366C17.125 8.98848 16.8452 8.70866 16.5 8.70866H12.3333ZM7.33333 6.83366H5.66667C4.50177 6.83366 3.52295 7.63039 3.24543 8.70866H1.5C1.15482 8.70866 0.875 8.98848 0.875 9.33366C0.875 9.67884 1.15482 9.95866 1.5 9.95866H3.24543C3.52295 11.0369 4.50177 11.8337 5.66667 11.8337H7.33333C8.71404 11.8337 9.83333 10.7144 9.83333 9.33366C9.83333 7.95295 8.71405 6.83366 7.33333 6.83366Z" fill="#2A313C"/>
</svg>
