<svg width="16" height="14" viewBox="0 0 16 14" fill="none" xmlns="http://www.w3.org/2000/svg">
    <path fill-rule="evenodd" clip-rule="evenodd" d="M0.5 2.78125V11.2188C0.5 11.3852 0.515457 11.5478 0.544961 11.7053L2.67112 6.86881C3.36323 5.25671 4.92058 4.1875 6.67151 4.1875H13.4787C13.344 2.92189 12.3113 1.9375 11.0573 1.9375H8.54202C8.10856 1.9375 7.68295 1.81735 7.3091 1.58944L5.68286 0.598061C5.30901 0.370152 4.8834 0.25 4.44994 0.25H2.93629C1.59076 0.25 0.5 1.38328 0.5 2.78125ZM6.67148 5.3125H13.4935H13.8733C15.1357 5.3125 15.9155 6.74345 15.266 7.86821L12.8156 12.1114C12.2285 13.128 11.1711 13.75 10.0301 13.75H2.93625C2.25907 13.75 1.64641 13.4629 1.20486 12.9996L3.70307 7.31678C4.22444 6.09798 5.38776 5.3125 6.67148 5.3125Z" fill="#A0AEC0"/>
</svg>
