<svg viewBox="0 0 38 28" fill="black" xmlns="http://www.w3.org/2000/svg">
    <path d="M13.7616 2.10672C12.4704 1.18928 10.4316 0.781525 8.80064 0.781525C4.5872 0.781525 0 3.53385 0 9.00451C0 14.2373 3.63578 17.2615 8.80064 17.2615C11.9267 17.2615 15.1208 18.5867 15.1208 21.5429C15.1208 24.5331 11.8928 25.7223 8.80064 25.7223C5.5726 25.7223 2.58243 24.1593 2.58243 20.9992H0.305814C0.305814 25.3825 3.97558 27.931 8.80064 27.931C13.2519 27.931 17.4314 25.7563 17.4314 21.5429C17.4314 18.7226 15.6305 16.8877 12.4704 16.0382C15.9023 15.0528 17.5333 11.9607 17.5333 9.00451C17.5333 6.32015 16.5479 4.82506 15.2907 3.43191L17.0916 1.29122L15.5285 0L13.7616 2.10672ZM8.80064 2.88824C12.0966 2.88824 15.2567 4.82506 15.2567 9.00451C15.2567 12.3685 12.7083 15.1548 8.80064 15.1548C5.16485 15.1548 2.31059 13.184 2.31059 9.00451C2.31059 4.79108 5.70852 2.88824 8.80064 2.88824Z" />
    <path d="M29.3693 0.781525C24.3403 0.781525 20.7385 4.31537 20.7385 9.5142C20.7385 14.713 24.4762 18.1449 29.3693 18.1449C34.3642 18.1449 38 14.713 38 9.5142C38 4.31537 34.2623 0.781525 29.3693 0.781525ZM29.3693 2.85426C33.073 2.85426 35.7234 5.60659 35.7234 9.5142C35.7234 13.4558 33.141 16.0042 29.3693 16.0042C25.6655 16.0042 23.0151 13.4558 23.0151 9.5142C23.0151 5.60659 25.6315 2.85426 29.3693 2.85426Z" fill="#000F1D"/>
</svg>
