<svg width="248" height="60" viewBox="0 0 124 30" fill="none" xmlns="http://www.w3.org/2000/svg">
    <path d="M4.56841 20.7795C2.78081 19.3863 1.62879 17.1969 1.62879 14.7488C1.62879 10.4894 5.16427 6.98642 9.55383 6.98642C10.4278 6.98642 11.2818 7.14565 12.0565 7.4044L14.0228 3.64264H15.6515L13.3872 7.96169C15.8303 9.29523 17.459 11.8429 17.459 14.7289C17.459 19.028 13.9235 22.4912 9.53397 22.4912C8.2032 22.4912 6.91215 22.1529 5.81973 21.5956L3.25749 26.5515H17.8761V27.9249H0.874023L4.56841 20.7795ZM3.07874 14.7488C3.07874 18.2717 5.9389 21.1577 9.53397 21.1577C13.129 21.1577 15.9892 18.2717 15.9892 14.7488C15.9892 11.2657 13.129 8.35976 9.53397 8.35976C5.9389 8.35976 3.07874 11.2657 3.07874 14.7488Z" fill="url(#paint0_linear_504_0)"/>
    <path d="M26.675 7.44391C30.846 7.44391 34.2226 10.8474 34.2226 15.047C34.2226 19.2467 30.846 22.6502 26.675 22.6502C22.5039 22.6502 19.1273 19.2467 19.1273 15.047C19.1273 10.8474 22.5039 7.44391 26.675 7.44391ZM26.675 21.4162C30.1509 21.4162 32.9117 18.5301 32.9117 15.047C32.9117 11.5639 30.1509 8.67792 26.675 8.67792C23.1991 8.67792 20.4382 11.5639 20.4382 15.047C20.4382 18.5301 23.1991 21.4162 26.675 21.4162Z" fill="url(#paint1_linear_504_0)"/>
    <path d="M54.4026 1.45325V14.291C54.4026 19.9237 50.6884 22.6504 46.1797 22.6504C41.6511 22.6504 37.8375 19.9436 37.8375 14.291V1.45325H39.9231V14.291C39.9231 18.2518 42.6243 20.6999 46.1797 20.6999C49.3378 20.6999 52.3171 18.6698 52.3171 14.291V1.45325H54.4026Z" fill="white"/>
    <path d="M61.0763 7.6031L61.1955 10.0114C62.1489 8.02107 64.0755 7.36426 65.8631 7.36426C67.1939 7.36426 68.1274 7.66281 69.2 8.39924L68.2863 10.0711C67.5315 9.57355 66.6775 9.2949 65.7638 9.2949C63.2413 9.2949 61.2154 11.2653 61.2154 13.9523V22.3317H59.2291V7.5832H61.0763V7.6031Z" fill="white"/>
    <path d="M73.6492 1.37335V10.5688C74.7416 8.39928 77.1251 7.3842 79.4291 7.40411C83.5605 7.30459 86.8377 10.1508 86.8377 15.0072C86.8377 19.9035 83.6002 22.6502 79.4291 22.6502C77.0854 22.6502 75.0594 21.8938 73.6492 19.5452L73.53 22.3516H71.663V1.37335H73.6492ZM73.7088 14.9873C73.7088 18.4107 76.1121 20.7394 79.3099 20.7394C82.3489 20.7394 84.8515 18.7093 84.8515 15.0072C84.8515 11.2853 82.3489 9.27503 79.3099 9.27503C76.1916 9.27503 73.7088 11.6037 73.7088 14.9873Z" fill="white"/>
    <path d="M103.006 7.60315H104.873V22.3516H103.025V19.4258C101.754 21.5953 99.331 22.6502 97.1263 22.6502C92.9553 22.6502 89.6184 19.6647 89.6184 14.9873C89.6184 10.3697 92.9751 7.40411 97.1462 7.40411C99.4105 7.40411 101.854 8.43909 102.986 10.529V7.60315H103.006ZM91.6245 14.9873C91.6245 18.4505 94.0874 20.7793 97.2256 20.7793C104.813 20.7793 104.813 9.23523 97.2256 9.23523C94.0874 9.21533 91.6245 11.5241 91.6245 14.9873Z" fill="white"/>
    <path d="M121.08 22.3516V14.0917C121.08 10.9071 119.273 9.25513 116.293 9.25513C113.433 9.25513 111.467 11.5241 111.467 14.3305V22.3516H109.481V7.60314H111.387L111.447 10.0712C113.215 7.14536 116.83 6.94633 119.193 7.78227C121.577 8.57841 123.126 10.7877 123.126 14.0519V22.3516H121.08Z" fill="white"/>
    <defs>
        <linearGradient id="paint0_linear_504_0" x1="2.75196" y1="32.1313" x2="19.8859" y2="3.30245" gradientUnits="userSpaceOnUse">
            <stop stop-color="#00D7FF"/>
            <stop offset="1" stop-color="#009DDE"/>
        </linearGradient>
        <linearGradient id="paint1_linear_504_0" x1="20.8477" y1="23.8436" x2="32.6542" y2="6.10385" gradientUnits="userSpaceOnUse">
            <stop stop-color="#00D7FF"/>
            <stop offset="1" stop-color="#009DDE"/>
        </linearGradient>
    </defs>
</svg>
