<svg viewBox="0 0 139 36" xmlns="http://www.w3.org/2000/svg">
    <path d="M14.5875 9.0676C13.2771 8.13649 11.2079 7.72266 9.55263 7.72266C5.2764 7.72266 0.620829 10.516 0.620829 16.0682C0.620829 21.379 4.3108 24.4482 9.55263 24.4482C12.7253 24.4482 15.967 25.7932 15.967 28.7934C15.967 31.8282 12.6908 33.0352 9.55263 33.0352C6.27649 33.0352 3.24174 31.4488 3.24174 28.2417H0.9312C0.9312 32.6903 4.65566 35.2767 9.55263 35.2767C14.0703 35.2767 18.312 33.0697 18.312 28.7934C18.312 25.9311 16.4843 24.0689 13.2771 23.2067C16.7601 22.2067 18.4155 19.0685 18.4155 16.0682C18.4155 13.3438 17.4154 11.8265 16.1394 10.4125L17.9671 8.23994L16.3808 6.92948L14.5875 9.0676ZM9.55263 9.86077C12.8977 9.86077 16.1049 11.8265 16.1049 16.0682C16.1049 19.4823 13.5185 22.3101 9.55263 22.3101C5.86266 22.3101 2.96586 20.3099 2.96586 16.0682C2.96586 11.792 6.41443 9.86077 9.55263 9.86077ZM30.4278 7.72266C25.3239 7.72266 21.6684 11.3092 21.6684 16.5855C21.6684 21.8618 25.4619 25.3449 30.4278 25.3449C35.4972 25.3449 39.1872 21.8618 39.1872 16.5855C39.1872 11.3092 35.3937 7.72266 30.4278 7.72266ZM30.4278 9.82628C34.1867 9.82628 36.8766 12.6196 36.8766 16.5855C36.8766 20.5858 34.2557 23.1723 30.4278 23.1723C26.6689 23.1723 23.979 20.5858 23.979 16.5855C23.979 12.6196 26.6344 9.82628 30.4278 9.82628ZM43.4154 7.96406V17.5511C43.4154 22.3446 46.3122 25.3449 50.7264 25.3449C53.1059 25.3104 55.3475 24.3448 56.7614 22.1377L56.8304 25H58.9685V7.96406H56.6924V17.2407C56.6924 20.5169 54.3819 23.0688 51.1058 23.0688C47.6572 23.1033 45.726 21.1031 45.726 17.5166V7.96406H43.4154ZM64.3636 7.96406V25H66.6742V15.3095C66.6742 12.2058 69.0192 9.92974 71.9505 9.92974C73.0195 9.92974 74.0196 10.2401 74.8818 10.8264L75.9508 8.89517C74.7093 8.03303 73.6403 7.68817 72.0884 7.68817C70.0193 7.68817 67.7777 8.44686 66.6742 10.7574L66.5362 7.96406H64.3636ZM87.6404 9.89526C91.1579 9.89526 94.0548 12.2058 94.0548 16.5165C94.0548 20.7927 91.1579 23.1378 87.6404 23.1378C83.9504 23.1378 81.1571 20.4479 81.1571 16.482C81.1571 12.5851 84.0194 9.89526 87.6404 9.89526ZM78.7776 0.756543V25H80.9502L81.0881 21.7583C82.7089 24.4827 85.054 25.3449 87.7783 25.3449C92.6064 25.3449 96.3653 22.1722 96.3653 16.5165C96.3653 10.8953 92.5719 7.6192 87.7783 7.72266C85.123 7.68817 82.3641 8.86069 81.0881 11.3781V0.756543H78.7776ZM115.048 11.3437C113.738 8.92966 110.91 7.72266 108.289 7.72266C103.461 7.72266 99.5644 11.1367 99.5644 16.482C99.5644 21.8963 103.427 25.3449 108.255 25.3449C110.807 25.3449 113.6 24.1379 115.083 21.6204V25H117.221V7.96406H115.048V11.3437ZM108.358 9.82628C117.152 9.82628 117.152 23.1723 108.358 23.1723C104.737 23.1723 101.875 20.4824 101.875 16.482C101.875 12.4817 104.737 9.82628 108.358 9.82628ZM138.319 25V15.413C138.319 11.654 136.526 9.10208 133.767 8.17097C131.043 7.20537 126.835 7.44677 124.801 10.8264L124.732 7.96406H122.525V25H124.835V15.7233C124.835 12.4817 127.111 9.86077 130.422 9.86077C133.87 9.86077 135.974 11.7575 135.974 15.4475V25H138.319Z" fill="#000F1D"/>
</svg>
