<svg width="24" height="24" viewBox="0 0 24 24" fill="none" xmlns="http://www.w3.org/2000/svg">
<path fill-rule="evenodd" clip-rule="evenodd" d="M17.7031 12.5626C17.3926 12.9507 16.8263 13.0136 16.4381 12.7031L12.0004 9.15292L7.56258 12.7031C7.17445 13.0136 6.60808 12.9507 6.29757 12.5626C5.98707 12.1744 6.05 11.6081 6.43813 11.2976L11.4381 7.29758C11.7668 7.03462 12.2339 7.03462 12.5626 7.29758L17.5626 11.2976C17.9507 11.6081 18.0136 12.1744 17.7031 12.5626Z" fill="#11152A"/>
<path fill-rule="evenodd" clip-rule="evenodd" d="M17.7031 16.5626C17.3926 16.9507 16.8263 17.0136 16.4381 16.7031L12.0004 13.1529L7.56258 16.7031C7.17445 17.0136 6.60808 16.9507 6.29757 16.5626C5.98707 16.1744 6.05 15.6081 6.43813 15.2976L11.4381 11.2976C11.7668 11.0346 12.2339 11.0346 12.5626 11.2976L17.5626 15.2976C17.9507 15.6081 18.0136 16.1744 17.7031 16.5626Z" fill="#11152A"/>
</svg>
