<svg width="16" height="16" viewBox="0 0 16 16" fill="none" xmlns="http://www.w3.org/2000/svg">
    <path d="M11.3889 11.2617C10.5469 11.2477 9.78923 10.9109 9.1858 10.2935L5.6778 6.72933C5.36909 6.42063 4.99021 6.23816 4.63941 6.23816C4.12025 6.23816 3.64308 6.4627 3.32037 6.84149C2.98358 7.23439 2.84331 7.72553 2.92748 8.23068C3.05374 9.04454 3.79744 9.67598 4.6254 9.68996C5.01829 9.68996 5.39718 9.50752 5.69181 9.19879C6.00051 8.89009 6.49168 8.89009 6.80028 9.18479C7.10899 9.4935 7.10899 9.98467 6.81428 10.2933C6.21095 10.9107 5.45318 11.2474 4.68139 11.2615C2.99768 11.2476 1.60838 10.055 1.36984 8.46939C1.22948 7.51526 1.4961 6.54703 2.12752 5.81734C2.75893 5.08765 3.67109 4.66666 4.63924 4.66666C5.43912 4.66666 6.1968 5.01746 6.81423 5.6349L10.3082 9.19903C10.6169 9.50773 10.9958 9.6902 11.3466 9.6902C12.2166 9.6902 12.9602 9.04467 13.0866 8.23092C13.1568 7.71176 13.0164 7.22061 12.6937 6.84173C12.3569 6.46284 11.8798 6.2384 11.3747 6.2384C11.0098 6.2384 10.631 6.42085 10.3223 6.72957C10.0136 7.03827 9.52238 7.03827 9.21378 6.74357C8.90507 6.43486 8.90507 5.94369 9.19978 5.63509C9.80311 5.01765 10.5749 4.66685 11.3467 4.66685C12.3289 4.66685 13.241 5.08784 13.8724 5.81753C14.5039 6.54722 14.7705 7.51545 14.6301 8.46958C14.3775 10.041 12.9883 11.2479 11.3887 11.2619L11.3889 11.2617Z" fill="#140A0A"/>
</svg>
