<svg width="16" height="10" viewBox="0 0 16 10" fill="none" xmlns="http://www.w3.org/2000/svg">
    <path fill-rule="evenodd" clip-rule="evenodd" d="M2.00001 0.5C1.35568 0.5 0.833344 1.02233 0.833344 1.66667V3C0.833344 3.64433 1.35568 4.16667 2.00001 4.16667H3.33334C3.97768 4.16667 4.50001 3.64433 4.50001 3V1.66667C4.50001 1.02233 3.97768 0.5 3.33334 0.5H2.00001ZM2.00001 5.83333C1.35568 5.83333 0.833344 6.35567 0.833344 7V8.33333C0.833344 8.97766 1.35568 9.5 2.00001 9.5H3.33334C3.97768 9.5 4.50001 8.97766 4.50001 8.33333V7C4.50001 6.35567 3.97768 5.83333 3.33334 5.83333H2.00001ZM6.16668 1C6.16668 0.723858 6.39053 0.5 6.66668 0.5H10.6667C10.9428 0.5 11.1667 0.723858 11.1667 1C11.1667 1.27614 10.9428 1.5 10.6667 1.5H6.66668C6.39053 1.5 6.16668 1.27614 6.16668 1ZM6.66668 5.83333C6.39053 5.83333 6.16668 6.05719 6.16668 6.33333C6.16668 6.60948 6.39053 6.83333 6.66668 6.83333H10.6667C10.9428 6.83333 11.1667 6.60948 11.1667 6.33333C11.1667 6.05719 10.9428 5.83333 10.6667 5.83333H6.66668ZM6.16668 3.66667C6.16668 3.39052 6.39053 3.16667 6.66668 3.16667H14.6667C14.9428 3.16667 15.1667 3.39052 15.1667 3.66667C15.1667 3.94281 14.9428 4.16667 14.6667 4.16667H6.66668C6.39053 4.16667 6.16668 3.94281 6.16668 3.66667ZM6.66668 8.5C6.39053 8.5 6.16668 8.72386 6.16668 9C6.16668 9.27614 6.39053 9.5 6.66668 9.5H14.6667C14.9428 9.5 15.1667 9.27614 15.1667 9C15.1667 8.72386 14.9428 8.5 14.6667 8.5H6.66668Z" fill="#140A0A"/>
</svg>
