<svg viewBox="0 0 16 20" fill="none" xmlns="http://www.w3.org/2000/svg">
    <path fill-rule="evenodd" clip-rule="evenodd" d="M4.75 4.75C4.75 2.95507 6.20507 1.5 8 1.5C9.79493 1.5 11.25 2.95507 11.25 4.75V6H4.75V4.75ZM3.25 6.0702V4.75C3.25 2.12665 5.37665 0 8 0C10.6234 0 12.75 2.12665 12.75 4.75V6.0702C14.6006 6.42125 16 8.04721 16 10V16C16 18.2091 14.2091 20 12 20H4C1.79086 20 0 18.2091 0 16V10C0 8.04721 1.39935 6.42125 3.25 6.0702ZM10 13C10 14.1046 9.10457 15 8 15C6.89543 15 6 14.1046 6 13C6 11.8954 6.89543 11 8 11C9.10457 11 10 11.8954 10 13Z" fill="#0A0E14"/>
</svg>
