<svg viewBox="0 0 18 22" fill="none" xmlns="http://www.w3.org/2000/svg">
<path d="M10.25 14C10.25 14.6904 9.69036 15.25 9 15.25V16.75C10.5188 16.75 11.75 15.5188 11.75 14H10.25ZM9 15.25C8.30964 15.25 7.75 14.6904 7.75 14H6.25C6.25 15.5188 7.48122 16.75 9 16.75V15.25ZM7.75 14C7.75 13.3096 8.30964 12.75 9 12.75V11.25C7.48122 11.25 6.25 12.4812 6.25 14H7.75ZM9 12.75C9.69036 12.75 10.25 13.3096 10.25 14H11.75C11.75 12.4812 10.5188 11.25 9 11.25V12.75ZM5 7.75H13V6.25H5V7.75ZM16.25 11V17H17.75V11H16.25ZM13 20.25H5V21.75H13V20.25ZM1.75 17V11H0.25V17H1.75ZM5 20.25C3.20507 20.25 1.75 18.7949 1.75 17H0.25C0.25 19.6234 2.37665 21.75 5 21.75V20.25ZM16.25 17C16.25 18.7949 14.7949 20.25 13 20.25V21.75C15.6234 21.75 17.75 19.6234 17.75 17H16.25ZM13 7.75C14.7949 7.75 16.25 9.20507 16.25 11H17.75C17.75 8.37665 15.6234 6.25 13 6.25V7.75ZM5 6.25C2.37665 6.25 0.25 8.37665 0.25 11H1.75C1.75 9.20507 3.20507 7.75 5 7.75V6.25ZM5.75 7V5H4.25V7H5.75ZM12.25 5V7H13.75V5H12.25ZM9 1.75C10.7949 1.75 12.25 3.20507 12.25 5H13.75C13.75 2.37665 11.6234 0.25 9 0.25V1.75ZM5.75 5C5.75 3.20507 7.20507 1.75 9 1.75V0.25C6.37665 0.25 4.25 2.37665 4.25 5H5.75Z" fill="#0A0E14"/>
</svg>

