<svg viewBox="0 0 22 20" fill="none" xmlns="http://www.w3.org/2000/svg">
    <path d="M5.41603 5.37596C5.07138 5.1462 4.60573 5.23933 4.37596 5.58397C4.1462 5.92862 4.23933 6.39427 4.58397 6.62404L5.41603 5.37596ZM8.7812 8.5208L9.19723 7.89676L8.7812 8.5208ZM13.2188 8.5208L12.8028 7.89676L13.2188 8.5208ZM17.416 6.62404C17.7607 6.39427 17.8538 5.92862 17.624 5.58397C17.3943 5.23933 16.9286 5.1462 16.584 5.37596L17.416 6.62404ZM5 1.75H17V0.25H5V1.75ZM20.25 5V15H21.75V5H20.25ZM17 18.25H5V19.75H17V18.25ZM1.75 15V5H0.25V15H1.75ZM5 18.25C3.20507 18.25 1.75 16.7949 1.75 15H0.25C0.25 17.6234 2.37665 19.75 5 19.75V18.25ZM20.25 15C20.25 16.7949 18.7949 18.25 17 18.25V19.75C19.6234 19.75 21.75 17.6234 21.75 15H20.25ZM17 1.75C18.7949 1.75 20.25 3.20507 20.25 5H21.75C21.75 2.37665 19.6234 0.25 17 0.25V1.75ZM5 0.25C2.37665 0.25 0.25 2.37665 0.25 5H1.75C1.75 3.20507 3.20507 1.75 5 1.75V0.25ZM4.58397 6.62404L8.36518 9.14484L9.19723 7.89676L5.41603 5.37596L4.58397 6.62404ZM13.6348 9.14484L17.416 6.62404L16.584 5.37596L12.8028 7.89676L13.6348 9.14484ZM8.36518 9.14484C9.9607 10.2085 12.0393 10.2085 13.6348 9.14484L12.8028 7.89676C11.7111 8.62454 10.2889 8.62454 9.19723 7.89676L8.36518 9.14484Z" fill="#0A0E14"/>
</svg>

