<svg viewBox="0 0 16 16" fill="black" xmlns="http://www.w3.org/2000/svg">
    <path fill-rule="evenodd" clip-rule="evenodd" d="M4.36768 7.91712L1.45721 10.5083C0.870019 11.031 0.524204 11.7731 0.501216 12.5592C0.478228 13.3448 0.782062 14.1074 1.33827 14.6631C1.89398 15.2193 2.65458 15.5216 3.44066 15.4986C4.22675 15.4756 4.96886 15.1298 5.49159 14.5426L7.98777 11.7386L4.36768 7.91712ZM14.9321 14.9249C15.3014 14.5556 15.5068 14.0514 15.4998 13.5292C15.4928 13.0064 15.2744 12.5087 14.8951 12.1494L6.64249 4.331C6.69796 4.09963 6.72694 3.85825 6.72694 3.60988C6.72694 1.89329 5.33367 0.50002 3.61757 0.50002C2.93443 0.50002 2.30227 0.720904 1.78904 1.09471C1.65211 1.19415 1.57515 1.35607 1.58414 1.52498C1.59314 1.69389 1.6866 1.84681 1.83302 1.93127L3.5706 2.93474C3.5756 2.93774 3.57959 2.94223 3.58109 2.94823C3.58259 2.95373 3.58159 2.95973 3.57859 2.96472L3.05688 3.86925C3.05388 3.87424 3.04888 3.87774 3.04338 3.87924C3.03738 3.88074 3.03139 3.88024 3.02639 3.87724L1.2758 2.86628C1.12988 2.78232 0.951974 2.77732 0.802053 2.85228C0.651632 2.92774 0.549194 3.07317 0.529704 3.24008C0.515212 3.36151 0.507713 3.48495 0.507713 3.60988C0.507713 5.32598 1.90098 6.71925 3.61757 6.71925C3.86594 6.71925 4.10732 6.69026 4.33919 6.63479L12.1571 14.8875C12.5164 15.2668 13.0141 15.4851 13.5369 15.4921C14.0591 15.4991 14.5623 15.2947 14.9321 14.9249ZM8.74387 5.13558L10.9212 7.1985L12.0266 6.09308H13.233C13.4149 6.09308 13.5818 5.99463 13.6703 5.83621L15.4369 2.65589C15.5453 2.46099 15.5113 2.21762 15.3534 2.0597L13.9401 0.646443C13.7822 0.488526 13.5389 0.454544 13.344 0.562987L10.1636 2.32956C10.0052 2.41801 9.90678 2.58492 9.90678 2.76683V3.97319L8.74387 5.13558Z" />
</svg>
