<svg viewBox="0 0 14 16" fill="black" xmlns="http://www.w3.org/2000/svg">
    <path fill-rule="evenodd" clip-rule="evenodd" d="M7 12.1667C8.66667 12.1667 12 8.26142 12 5.5C12 2.73858 9.76142 0.5 7 0.5C4.23858 0.5 2 2.73858 2 5.5C2 8.26142 5.33333 12.1667 7 12.1667ZM7 7.16667C7.92048 7.16667 8.66667 6.42048 8.66667 5.5C8.66667 4.57953 7.92048 3.83333 7 3.83333C6.07953 3.83333 5.33333 4.57953 5.33333 5.5C5.33333 6.42048 6.07953 7.16667 7 7.16667Z" />
    <path fill-rule="evenodd" clip-rule="evenodd" d="M2.87984 10.6254C2.07405 10.8321 1.34395 11.2875 0.800752 11.9393L0.567111 12.2197C-0.518434 13.5223 0.407879 15.5 2.10355 15.5H11.8967C13.5924 15.5 14.5187 13.5223 13.4332 12.2197L13.1995 11.9393C12.6563 11.2875 11.9262 10.8321 11.1204 10.6254C11.1159 10.6312 11.1114 10.637 11.1068 10.6427C10.5337 11.3698 9.885 12.0266 9.23347 12.5141C8.63116 12.9649 7.8353 13.4167 7.00014 13.4167C6.16498 13.4167 5.36911 12.9649 4.76681 12.5141C4.11527 12.0266 3.46659 11.3698 2.89345 10.6427C2.88891 10.637 2.88438 10.6312 2.87984 10.6254Z"/>
</svg>
