<svg width="14" height="14" viewBox="0 0 14 14" fill="none" xmlns="http://www.w3.org/2000/svg">
    <path d="M2.66695 3.58008C1.93012 3.95531 1.24866 4.43341 0.814762 4.76149C0.503578 4.99678 0.333328 5.36793 0.333328 5.75805V12.2043C0.333328 12.7733 1.01859 13.1032 1.49084 12.7859C2.29716 12.244 3.39246 11.6287 4.33333 11.5234C5.43943 11.3996 6.21971 11.9932 7 12.5868C7.78028 13.1804 8.56056 13.774 9.66666 13.6502C10.9115 13.5108 12.4267 12.4788 13.1852 11.9052C13.4964 11.6699 13.6667 11.2988 13.6667 10.9086V4.46236C13.6667 3.89339 12.9814 3.56346 12.5091 3.88081C12.1216 4.14125 11.6673 4.41866 11.1954 4.64825C10.9993 5.49962 10.6103 6.38885 10.1346 7.13415C9.78138 7.68743 9.34761 8.2143 8.84795 8.6133C8.35421 9.00757 7.72288 9.33334 7 9.33334C6.27711 9.33334 5.64578 9.00757 5.15204 8.6133C4.65238 8.2143 4.21861 7.68743 3.86543 7.13415C3.184 6.06668 2.68062 4.70394 2.66695 3.58008Z" fill="#2A313C"/>
    <path fill-rule="evenodd" clip-rule="evenodd" d="M6.99999 8.33333C8.66666 8.33333 10.3333 5.30064 10.3333 3.53333C10.3333 1.76602 8.84094 0.333328 6.99999 0.333328C5.15904 0.333328 3.66666 1.76602 3.66666 3.53333C3.66666 5.30064 5.33332 8.33333 6.99999 8.33333ZM6.99999 4.33333C7.55227 4.33333 7.99999 3.88561 7.99999 3.33333C7.99999 2.78104 7.55227 2.33333 6.99999 2.33333C6.44771 2.33333 5.99999 2.78104 5.99999 3.33333C5.99999 3.88561 6.44771 4.33333 6.99999 4.33333Z" fill="#2A313C"/>
</svg>
