<svg width="46" height="40" viewBox="0 0 46 40" fill="none" xmlns="http://www.w3.org/2000/svg">
    <path d="M0 6.95032L40 6.95032C43.3137 6.95032 46 9.63661 46 12.9503L46 34C46 37.3137 43.3137 40 40 40L6 40C2.68629 40 0 37.3137 0 34L0 6.95032Z" fill="#A0AEC0"/>
    <path fill-rule="evenodd" clip-rule="evenodd" d="M21.7426 4.80867C22.3638 5.27271 23.0908 5.56886 23.8533 5.67377L0 5.67377L0 4.53902C0 2.03219 2.04036 0 4.55727 0L13.7862 0C14.7722 0 15.7317 0.318538 16.5205 0.907803L21.7426 4.80867Z" fill="#A0AEC0"/>
    <g clip-path="url(#clip0_8715_134344)">
        <path d="M19.6058 20.3546C19.6058 18.4353 21.0935 16.8795 22.9288 16.8795C24.764 16.8795 26.2518 18.4353 26.2518 20.3546C26.2518 21.8756 25.3175 23.1683 24.0164 23.6394C23.4383 23.8487 22.9288 24.3485 22.9288 24.9882V26.1466" stroke="white" stroke-width="1.2" stroke-linecap="round"/>
        <ellipse cx="22.9288" cy="29.4563" rx="0.664603" ry="0.66194" fill="white"/>
    </g>
    <defs>
        <clipPath id="clip0_8715_134344">
            <rect width="15.9505" height="15.8865" fill="white" transform="translate(14.9536 14.8936)"/>
        </clipPath>
    </defs>
</svg>
