<svg viewBox="0 0 20 18" fill="none" xmlns="http://www.w3.org/2000/svg">
    <path fill-rule="evenodd" clip-rule="evenodd" d="M1.46973 1.53033C1.17684 1.23744 1.17684 0.762563 1.46973 0.46967C1.76262 0.176777 2.2375 0.176777 2.53039 0.46967L18.5304 16.4697C18.8233 16.7626 18.8233 17.2374 18.5304 17.5303C18.2375 17.8232 17.7626 17.8232 17.4697 17.5303L14.643 14.7036C13.2337 15.4709 11.6601 16 10.0001 16C6.18455 16 2.82555 13.2047 0.869767 11.1469C-0.289841 9.92683 -0.289841 8.07317 0.869767 6.8531C1.69959 5.98001 2.78202 4.97414 4.04474 4.10534L1.46973 1.53033ZM7.41543 7.47603C7.15151 7.92266 7.00006 8.44364 7.00006 9C7.00006 10.6569 8.34321 12 10.0001 12C10.5564 12 11.0774 11.8486 11.524 11.5846L7.41543 7.47603ZM10.0001 2C13.8156 2 17.1746 4.79533 19.1304 6.8531C20.29 8.07317 20.29 9.92683 19.1304 11.1469C18.6903 11.6099 18.1792 12.1103 17.6078 12.6077L7.41276 2.41264C8.24223 2.15256 9.10869 2 10.0001 2Z" fill="#0A0E14"/>
</svg>
