<svg viewBox="0 0 22 18" fill="none" xmlns="http://www.w3.org/2000/svg">
	<path d="M3.53039 0.46967C3.2375 0.176777 2.76262 0.176777 2.46973 0.46967C2.17684 0.762563 2.17684 1.23744 2.46973 1.53033L3.53039 0.46967ZM18.4697 17.5303C18.7626 17.8232 19.2375 17.8232 19.5304 17.5303C19.8233 17.2374 19.8233 16.7626 19.5304 16.4697L18.4697 17.5303ZM13.5002 11.795C13.8089 11.5187 13.8352 11.0446 13.5589 10.7359C13.2827 10.4273 12.8085 10.401 12.4999 10.6773L13.5002 11.795ZM9.32281 7.50019C9.59905 7.19154 9.57279 6.71739 9.26414 6.44115C8.95549 6.1649 8.48135 6.19117 8.2051 6.49981L9.32281 7.50019ZM1.86977 11.1469L1.32614 11.6636H1.32614L1.86977 11.1469ZM20.1304 6.8531L20.674 6.33641V6.33641L20.1304 6.8531ZM20.1304 11.1469L20.674 11.6636H20.674L20.1304 11.1469ZM1.86977 6.8531L1.32614 6.33641H1.32614L1.86977 6.8531ZM18.1153 12.0421C17.8029 12.314 17.7702 12.7878 18.0422 13.1002C18.3142 13.4126 18.7879 13.4453 19.1003 13.1734L18.1153 12.0421ZM8.18837 1.69699C7.79313 1.82092 7.57319 2.24179 7.69712 2.63703C7.82104 3.03227 8.24191 3.25221 8.63715 3.12829L8.18837 1.69699ZM5.9036 4.43556C6.25275 4.21269 6.35511 3.74898 6.13224 3.39984C5.90937 3.0507 5.44566 2.94833 5.09652 3.1712L5.9036 4.43556ZM16.5516 15.0471C16.9065 14.8335 17.0211 14.3727 16.8075 14.0177C16.594 13.6628 16.1331 13.5482 15.7782 13.7618L16.5516 15.0471ZM2.46973 1.53033L18.4697 17.5303L19.5304 16.4697L3.53039 0.46967L2.46973 1.53033ZM7.25006 9C7.25006 11.0711 8.92899 12.75 11.0001 12.75V11.25C9.75742 11.25 8.75006 10.2426 8.75006 9H7.25006ZM11.0001 12.75C11.96 12.75 12.8373 12.3883 13.5002 11.795L12.4999 10.6773C12.1013 11.034 11.5768 11.25 11.0001 11.25V12.75ZM8.2051 6.49981C7.61175 7.16276 7.25006 8.04004 7.25006 9H8.75006C8.75006 8.42325 8.96608 7.89875 9.32281 7.50019L8.2051 6.49981ZM1.32614 11.6636C3.29777 13.738 6.84904 16.75 11.0001 16.75V15.25C7.52005 15.25 4.35334 12.6713 2.4134 10.6302L1.32614 11.6636ZM20.674 6.33641C18.7024 4.26198 15.1511 1.25 11.0001 1.25V2.75C14.4801 2.75 17.6468 5.32869 19.5867 7.36979L20.674 6.33641ZM20.674 11.6636C22.1088 10.154 22.1088 7.84599 20.674 6.33641L19.5867 7.36979C20.4712 8.30035 20.4712 9.69965 19.5867 10.6302L20.674 11.6636ZM2.4134 10.6302C1.52895 9.69965 1.52895 8.30035 2.4134 7.36979L1.32614 6.33641C-0.108631 7.84599 -0.108631 10.154 1.32614 11.6636L2.4134 10.6302ZM19.1003 13.1734C19.6921 12.6581 20.2203 12.1409 20.674 11.6636L19.5867 10.6302C19.1603 11.0789 18.6662 11.5624 18.1153 12.0421L19.1003 13.1734ZM11.0001 1.25C10.0225 1.25 9.0802 1.41736 8.18837 1.69699L8.63715 3.12829C9.40427 2.88776 10.1949 2.75 11.0001 2.75V1.25ZM5.09652 3.1712C3.57057 4.14527 2.28021 5.33259 1.32614 6.33641L2.4134 7.36979C3.31518 6.42098 4.51243 5.3236 5.9036 4.43556L5.09652 3.1712ZM11.0001 16.75C13.0477 16.75 14.9404 16.0165 16.5516 15.0471L15.7782 13.7618C14.3132 14.6433 12.6886 15.25 11.0001 15.25V16.75Z" fill="#0A0E14"/>
</svg>
