<svg viewBox="0 0 22 16" fill="none" xmlns="http://www.w3.org/2000/svg">
	<path d="M1.86971 10.1469L1.32608 10.6636L1.86971 10.1469ZM1.86971 5.8531L1.32608 5.33641L1.86971 5.8531ZM20.1303 10.1469L20.6739 10.6636L20.1303 10.1469ZM20.1303 5.8531L20.6739 5.33641L20.1303 5.8531ZM19.5867 9.63021C17.6467 11.6713 14.48 14.25 11 14.25V15.75C15.151 15.75 18.7023 12.738 20.6739 10.6636L19.5867 9.63021ZM11 14.25C7.51999 14.25 4.35328 11.6713 2.41334 9.63021L1.32608 10.6636C3.2977 12.738 6.84898 15.75 11 15.75V14.25ZM2.41334 6.36979C4.35328 4.32869 7.51999 1.75 11 1.75V0.25C6.84898 0.25 3.2977 3.26198 1.32608 5.33641L2.41334 6.36979ZM11 1.75C14.48 1.75 17.6467 4.32869 19.5867 6.36979L20.6739 5.33641C18.7023 3.26198 15.151 0.25 11 0.25V1.75ZM2.41334 9.63021C1.52889 8.69965 1.52889 7.30035 2.41334 6.36979L1.32608 5.33641C-0.108692 6.84599 -0.108692 9.15401 1.32608 10.6636L2.41334 9.63021ZM20.6739 10.6636C22.1087 9.15401 22.1087 6.84599 20.6739 5.33641L19.5867 6.36979C20.4711 7.30035 20.4711 8.69965 19.5867 9.63021L20.6739 10.6636ZM13.25 8C13.25 9.24264 12.2426 10.25 11 10.25V11.75C13.0711 11.75 14.75 10.0711 14.75 8H13.25ZM11 10.25C9.75736 10.25 8.75 9.24264 8.75 8H7.25C7.25 10.0711 8.92893 11.75 11 11.75V10.25ZM8.75 8C8.75 6.75736 9.75736 5.75 11 5.75V4.25C8.92893 4.25 7.25 5.92893 7.25 8H8.75ZM11 5.75C12.2426 5.75 13.25 6.75736 13.25 8H14.75C14.75 5.92893 13.0711 4.25 11 4.25V5.75Z" fill="#0A0E14"/>
</svg>
