<svg viewBox="0 0 20 20" fill="black" xmlns="http://www.w3.org/2000/svg">
    <path fill-rule="evenodd" clip-rule="evenodd" d="M3.33329 1.66663C2.41282 1.66663 1.66663 2.41282 1.66663 3.33329V6.66663C1.66663 7.5871 2.41282 8.33329 3.33329 8.33329H6.66663C7.5871 8.33329 8.33329 7.5871 8.33329 6.66663V3.33329C8.33329 2.41282 7.5871 1.66663 6.66663 1.66663H3.33329ZM4.99996 18.3333C6.84091 18.3333 8.33329 16.8409 8.33329 15C8.33329 13.159 6.84091 11.6666 4.99996 11.6666C3.15901 11.6666 1.66663 13.159 1.66663 15C1.66663 16.8409 3.15901 18.3333 4.99996 18.3333ZM11.6666 13.3333C11.6666 12.4128 12.4128 11.6666 13.3333 11.6666H16.6666C17.5871 11.6666 18.3333 12.4128 18.3333 13.3333V16.6666C18.3333 17.5871 17.5871 18.3333 16.6666 18.3333H13.3333C12.4128 18.3333 11.6666 17.5871 11.6666 16.6666V13.3333ZM15.4166 2.29163C15.4166 1.94645 15.1368 1.66663 14.7916 1.66663C14.4464 1.66663 14.1666 1.94645 14.1666 2.29163V4.58329H11.875C11.5298 4.58329 11.25 4.86311 11.25 5.20829C11.25 5.55347 11.5298 5.83329 11.875 5.83329H14.1666V8.12496C14.1666 8.47014 14.4464 8.74996 14.7916 8.74996C15.1368 8.74996 15.4166 8.47014 15.4166 8.12496V5.83329H17.7083C18.0535 5.83329 18.3333 5.55347 18.3333 5.20829C18.3333 4.86311 18.0535 4.58329 17.7083 4.58329H15.4166V2.29163Z" />
</svg>
