<svg xmlns="http://www.w3.org/2000/svg" fill="none" viewBox="0 0 22 18">
  <path fill="#140A0A" fill-rule="evenodd" d="M11 0a8.753 8.753 0 0 0-8.114 5.469.75.75 0 1 0 1.39.562 7.253 7.253 0 0 1 13.864 1.45l-.804-.402a.75.75 0 0 0-.671 1.342l.894.447a2.748 2.748 0 0 0 2.88-.26l1.011-.758a.75.75 0 0 0-.9-1.2l-.914.685A8.752 8.752 0 0 0 11 0ZM2.23 9.974c.033-.017.066-.031.099-.045a8.752 8.752 0 0 0 16.785 2.102.75.75 0 0 0-1.39-.562 7.253 7.253 0 0 1-13.788-1.08l.614.461a.75.75 0 1 0 .9-1.2L4.44 8.892a2.75 2.75 0 0 0-2.88-.26l-.894.447a.75.75 0 1 0 .67 1.342l.895-.447Zm9.52-6.724a.75.75 0 1 0-1.5 0v.854A2.751 2.751 0 0 0 11 9.5a1.25 1.25 0 1 1-1.25 1.25.75.75 0 0 0-1.5 0c0 1.259.846 2.32 2 2.646v.854a.75.75 0 0 0 1.5 0v-.854A2.751 2.751 0 0 0 11 8a1.25 1.25 0 1 1 1.25-1.25.75.75 0 0 0 1.5 0c0-1.259-.845-2.32-2-2.646V3.25Z" clip-rule="evenodd"/>
</svg>