<svg width="14" height="14" viewBox="0 0 14 14" fill="none" xmlns="http://www.w3.org/2000/svg">
    <path fill-rule="evenodd" clip-rule="evenodd" d="M7 1.5C10.0376 1.5 12.5 3.96243 12.5 7C12.5 10.0376 10.0376 12.5 7 12.5C3.96243 12.5 1.5 10.0376 1.5 7C1.5 6.72386 1.27614 6.5 1 6.5C0.723858 6.5 0.5 6.72386 0.5 7C0.5 10.5899 3.41015 13.5 7 13.5C10.5899 13.5 13.5 10.5899 13.5 7C13.5 3.41015 10.5899 0.5 7 0.5C5.15265 0.5 3.48567 1.27081 2.30269 2.50727V1C2.30269 0.723858 2.07884 0.5 1.80269 0.5C1.52655 0.5 1.30269 0.723858 1.30269 1V4C1.30269 4.27614 1.52655 4.5 1.80269 4.5H4.75C5.02614 4.5 5.25 4.27614 5.25 4C5.25 3.72386 5.02614 3.5 4.75 3.5H2.75709C3.76635 2.27788 5.29254 1.5 7 1.5Z" fill="#140A0A"/>
</svg>
