<svg width="12" height="16" viewBox="0 0 12 16" fill="none" xmlns="http://www.w3.org/2000/svg">
    <path fill-rule="evenodd" clip-rule="evenodd" d="M7.72664 0.865932C7.98467 0.767579 8.27358 0.897025 8.37193 1.15506L9.15733 3.21557C9.23288 3.41378 9.17514 3.6381 9.01326 3.7752C8.85139 3.91229 8.62063 3.93232 8.43755 3.82517C7.72233 3.40656 6.88994 3.16648 5.99996 3.16648C3.33058 3.16648 1.16663 5.33043 1.16663 7.99981C1.16663 8.881 1.40198 9.7057 1.81293 10.4161C1.95121 10.6551 1.86952 10.961 1.63049 11.0993C1.39146 11.2376 1.0856 11.1559 0.947328 10.9168C0.450704 10.0583 0.166626 9.06148 0.166626 7.99981C0.166626 4.77815 2.7783 2.16648 5.99996 2.16648C6.62569 2.16648 7.22889 2.26516 7.79453 2.44787L7.43751 1.51123C7.33916 1.25319 7.4686 0.964286 7.72664 0.865932ZM10.3694 4.90034C10.6085 4.76207 10.9143 4.84375 11.0526 5.08278C11.5492 5.9413 11.8333 6.93814 11.8333 7.99981C11.8333 11.2215 9.22162 13.8331 5.99996 13.8331C5.37422 13.8331 4.77102 13.7345 4.20538 13.5517L4.56241 14.4884C4.66076 14.7464 4.53132 15.0353 4.27329 15.1337C4.01525 15.232 3.72634 15.1026 3.62799 14.8446L2.84257 12.784C2.76701 12.5858 2.82476 12.3615 2.98663 12.2244C3.14851 12.0873 3.37927 12.0673 3.56235 12.1744C4.27757 12.5931 5.10997 12.8331 5.99996 12.8331C8.66934 12.8331 10.8333 10.6692 10.8333 7.99981C10.8333 7.11862 10.5979 6.29392 10.187 5.58351C10.0487 5.34448 10.1304 5.03861 10.3694 4.90034Z" fill="#0A0E14"/>
</svg>
