<svg viewBox="0 0 20 22" fill="none" xmlns="http://www.w3.org/2000/svg">
    <path d="M11.6831 9.08076L12.3138 9.4866L11.6831 9.08076ZM7.25 7.99997C7.25 8.41418 7.58579 8.74997 8 8.74997C8.41421 8.74997 8.75 8.41418 8.75 7.99997H7.25ZM9.25 12.5C9.25 12.9142 9.58579 13.25 10 13.25C10.4142 13.25 10.75 12.9142 10.75 12.5H9.25ZM10.75 15C10.75 14.5858 10.4142 14.25 10 14.25C9.58579 14.25 9.25 14.5858 9.25 15H10.75ZM9.25 16C9.25 16.4142 9.58579 16.75 10 16.75C10.4142 16.75 10.75 16.4142 10.75 16H9.25ZM3.07846 4.43932L3.46063 5.08465L3.07846 4.43932ZM3.07846 17.5607L3.46063 16.9153H3.46063L3.07846 17.5607ZM12.0785 20.4288L11.6963 19.7834L12.0785 20.4288ZM7.92154 20.4288L7.53937 21.0741L7.92154 20.4288ZM16.9215 17.5607L17.3037 18.206L16.9215 17.5607ZM16.9215 4.43932L16.5394 5.08465L16.9215 4.43932ZM12.0785 1.57125L11.6963 2.21658L12.0785 1.57125ZM7.92154 1.57125L7.53937 0.925918L7.92154 1.57125ZM11.25 7.99997C11.25 8.24993 11.1774 8.48065 11.0524 8.67492L12.3138 9.4866C12.5899 9.05754 12.75 8.54631 12.75 7.99997H11.25ZM8.75 7.99997C8.75 7.30961 9.30964 6.74997 10 6.74997V5.24997C8.48122 5.24997 7.25 6.48119 7.25 7.99997H8.75ZM10 6.74997C10.6904 6.74997 11.25 7.30961 11.25 7.99997H12.75C12.75 6.48119 11.5188 5.24997 10 5.24997V6.74997ZM9.25 12V12.5H10.75V12H9.25ZM11.0524 8.67492C10.9265 8.87062 10.7688 9.0731 10.5836 9.30326C10.4063 9.52366 10.1979 9.77632 10.011 10.0332C9.64241 10.5397 9.25 11.2007 9.25 12H10.75C10.75 11.6947 10.9003 11.3605 11.2239 10.9157C11.383 10.697 11.558 10.485 11.7523 10.2436C11.9387 10.0119 12.1409 9.75534 12.3138 9.4866L11.0524 8.67492ZM9.25 15V16H10.75V15H9.25ZM11.6963 2.21658L16.5394 5.08465L17.3037 3.79399L12.4606 0.925918L11.6963 2.21658ZM18.25 8.13192V13.8681H19.75V8.13192H18.25ZM16.5394 16.9153L11.6963 19.7834L12.4606 21.0741L17.3037 18.206L16.5394 16.9153ZM8.3037 19.7834L3.46063 16.9153L2.6963 18.206L7.53937 21.0741L8.3037 19.7834ZM1.75 13.8681V8.13192H0.25V13.8681H1.75ZM3.46063 5.08465L8.3037 2.21658L7.53937 0.925918L2.6963 3.79399L3.46063 5.08465ZM1.75 8.13192C1.75 6.86735 2.40779 5.70814 3.46063 5.08465L2.6963 3.79399C1.17682 4.69383 0.25 6.34985 0.25 8.13192H1.75ZM3.46063 16.9153C2.40779 16.2919 1.75 15.1327 1.75 13.8681H0.25C0.25 15.6502 1.17682 17.3062 2.6963 18.206L3.46063 16.9153ZM11.6963 19.7834C10.6458 20.4055 9.35419 20.4055 8.3037 19.7834L7.53937 21.0741C9.06119 21.9753 10.9388 21.9753 12.4606 21.0741L11.6963 19.7834ZM18.25 13.8681C18.25 15.1327 17.5922 16.2919 16.5394 16.9153L17.3037 18.206C18.8232 17.3062 19.75 15.6502 19.75 13.8681H18.25ZM16.5394 5.08465C17.5922 5.70814 18.25 6.86735 18.25 8.13192H19.75C19.75 6.34985 18.8232 4.69383 17.3037 3.79399L16.5394 5.08465ZM12.4606 0.925918C10.9388 0.0246941 9.06119 0.024694 7.53937 0.925918L8.3037 2.21658C9.35419 1.59447 10.6458 1.59447 11.6963 2.21658L12.4606 0.925918Z" fill="#000F1D"/>
</svg>
