<svg width="24" height="24" viewBox="0 0 24 24" fill="none" xmlns="http://www.w3.org/2000/svg">
<path fill-rule="evenodd" clip-rule="evenodd" d="M17.7031 10.5626C17.3926 10.9507 16.8263 11.0136 16.4381 10.7031L12.0004 7.15292L7.56258 10.7031C7.17445 11.0136 6.60808 10.9507 6.29757 10.5626C5.98707 10.1744 6.05 9.60809 6.43813 9.29758L11.4381 5.29758C11.7668 5.03462 12.2339 5.03462 12.5626 5.29758L17.5626 9.29758C17.9507 9.60808 18.0136 10.1744 17.7031 10.5626Z" fill="#11152A"/>
<path fill-rule="evenodd" clip-rule="evenodd" d="M17.7031 14.5626C17.3926 14.9507 16.8263 15.0136 16.4381 14.7031L12.0004 11.1529L7.56258 14.7031C7.17445 15.0136 6.60808 14.9507 6.29757 14.5626C5.98707 14.1744 6.05 13.6081 6.43813 13.2976L11.4381 9.29758C11.7668 9.03462 12.2339 9.03462 12.5626 9.29758L17.5626 13.2976C17.9507 13.6081 18.0136 14.1744 17.7031 14.5626Z" fill="#11152A"/>
<path fill-rule="evenodd" clip-rule="evenodd" d="M17.7031 18.5626C17.3926 18.9507 16.8263 19.0136 16.4381 18.7031L12.0004 15.1529L7.56258 18.7031C7.17445 19.0136 6.60808 18.9507 6.29757 18.5626C5.98707 18.1744 6.05 17.6081 6.43813 17.2976L11.4381 13.2976C11.7668 13.0346 12.2339 13.0346 12.5626 13.2976L17.5626 17.2976C17.9507 17.6081 18.0136 18.1744 17.7031 18.5626Z" fill="#11152A"/>
</svg>
