<svg width="12" height="10" viewBox="0 0 12 10" fill="none" xmlns="http://www.w3.org/2000/svg">
    <path fill-rule="evenodd" clip-rule="evenodd" d="M6.31312 7.35355L8.31312 9.35355C8.50839 9.54882 8.82497 9.54882 9.02023 9.35355L11.0202 7.35355C11.2155 7.15829 11.2155 6.84171 11.0202 6.64645C10.825 6.45118 10.5084 6.45118 10.3131 6.64645L9.16668 7.79289V1C9.16668 0.723858 8.94282 0.5 8.66668 0.5C8.39054 0.5 8.16668 0.723858 8.16668 1L8.16668 7.79289L7.02023 6.64645C6.82497 6.45118 6.50839 6.45118 6.31312 6.64645C6.11786 6.84171 6.11786 7.15829 6.31312 7.35355ZM3.6869 0.646448C3.49163 0.451186 3.17505 0.451186 2.97979 0.646448L0.97979 2.64645C0.784528 2.84171 0.784528 3.15829 0.97979 3.35355C1.17505 3.54882 1.49163 3.54882 1.6869 3.35355L2.83334 2.20711V9C2.83334 9.27614 3.0572 9.5 3.33334 9.5C3.60949 9.5 3.83334 9.27614 3.83334 9V2.20711L4.97979 3.35355C5.17505 3.54882 5.49163 3.54882 5.6869 3.35355C5.88216 3.15829 5.88216 2.84171 5.6869 2.64645L3.6869 0.646448Z" fill="#140A0A"/>
</svg>
