<svg width="14" height="14" viewBox="0 0 14 14" fill="none" xmlns="http://www.w3.org/2000/svg">
    <path fill-rule="evenodd" clip-rule="evenodd" d="M6.18016 0.517769C6.69629 0.259702 7.30381 0.259702 7.81994 0.517769L12.6978 2.95667C13.5576 3.38662 13.5576 4.61373 12.6978 5.04367L7.81994 7.48258C7.30381 7.74065 6.69629 7.74064 6.18016 7.48258L1.30235 5.04367C0.442455 4.61373 0.44246 3.38662 1.30235 2.95667L6.18016 0.517769ZM0.543097 10.4637C0.655249 10.2114 0.95073 10.0977 1.20307 10.2099L6.66155 12.6359C6.87702 12.7316 7.12298 12.7316 7.33845 12.6359L12.7969 10.2099C13.0493 10.0977 13.3448 10.2114 13.4569 10.4637C13.5691 10.7161 13.4554 11.0115 13.2031 11.1237L7.74459 13.5497C7.27055 13.7604 6.72945 13.7604 6.25541 13.5497L0.796934 11.1237C0.544591 11.0115 0.430945 10.7161 0.543097 10.4637ZM1.20307 7.20989C0.95073 7.09773 0.655249 7.21138 0.543097 7.46372C0.430945 7.71606 0.544591 8.01155 0.796934 8.1237L6.25541 10.5497C6.72945 10.7604 7.27055 10.7604 7.74459 10.5497L13.2031 8.1237C13.4554 8.01155 13.5691 7.71606 13.4569 7.46372C13.3448 7.21138 13.0493 7.09773 12.7969 7.20989L7.33845 9.63588C7.12298 9.73164 6.87702 9.73164 6.66155 9.63588L1.20307 7.20989Z" fill="#0A0E14"/>
</svg>
