<svg viewBox="0 0 20 20" fill="none" xmlns="http://www.w3.org/2000/svg">
    <path fill-rule="evenodd" clip-rule="evenodd" d="M14.6083 2.89131C14.3642 2.64723 13.9685 2.64723 13.7244 2.89131C13.4803 3.13539 13.4803 3.53112 13.7244 3.77519L15.1575 5.20825H7.49969C4.85333 5.20825 2.70803 7.35355 2.70803 9.99992V10.8333C2.70803 11.1784 2.98785 11.4583 3.33303 11.4583C3.6782 11.4583 3.95803 11.1784 3.95803 10.8333V9.99992C3.95803 8.04391 5.54368 6.45825 7.49969 6.45825H16.6664C16.9191 6.45825 17.147 6.30598 17.2438 6.07243C17.3405 5.83888 17.2871 5.57006 17.1083 5.39131L14.6083 2.89131ZM5.39109 17.1085C5.63516 17.3526 6.03089 17.3526 6.27497 17.1085C6.51905 16.8644 6.51905 16.4687 6.27497 16.2246L4.84191 14.7916H12.4997C15.1461 14.7916 17.2914 12.6463 17.2914 9.99992V9.16659C17.2914 8.82141 17.0115 8.54159 16.6664 8.54159C16.3212 8.54159 16.0414 8.82141 16.0414 9.16659V9.99992C16.0414 11.9559 14.4557 13.5416 12.4997 13.5416H3.33303C3.08024 13.5416 2.85234 13.6939 2.7556 13.9274C2.65886 14.161 2.71234 14.4298 2.89108 14.6085L5.39109 17.1085Z" fill="#000F1D"/>
</svg>
