<svg viewBox="0 0 20 21" fill="black" xmlns="http://www.w3.org/2000/svg">
    <path fill-rule="evenodd" clip-rule="evenodd" d="M13.3335 1.16699C13.6787 1.16699 13.9585 1.44681 13.9585 1.79199V3.06798C15.9517 3.29544 17.5 4.9879 17.5 7.04199V14.4587C17.5 16.6678 15.7091 18.4587 13.5 18.4587H6.5C4.29086 18.4587 2.5 16.6678 2.5 14.4587V7.04199C2.5 4.98791 4.0483 3.29544 6.0415 3.06798V1.79199C6.0415 1.44681 6.32133 1.16699 6.6665 1.16699C7.01168 1.16699 7.2915 1.44681 7.2915 1.79199V3.04199H12.7085V1.79199C12.7085 1.44681 12.9883 1.16699 13.3335 1.16699ZM6.62529 7.63467C6.62529 8.04883 6.28955 8.38457 5.87539 8.38457C5.46123 8.38457 5.12549 8.04883 5.12549 7.63467C5.12549 7.22051 5.46123 6.88477 5.87539 6.88477C6.28955 6.88477 6.62529 7.22051 6.62529 7.63467ZM7.56738 7.63486C7.56738 7.27588 7.8584 6.98486 8.21738 6.98486H14.2246C14.5836 6.98486 14.8746 7.27588 14.8746 7.63486C14.8746 7.99385 14.5836 8.28486 14.2246 8.28486H8.21738C7.8584 8.28486 7.56738 7.99385 7.56738 7.63486ZM5.87539 15.0203C6.28955 15.0203 6.62529 14.6846 6.62529 14.2704C6.62529 13.8563 6.28955 13.5205 5.87539 13.5205C5.46123 13.5205 5.12549 13.8563 5.12549 14.2704C5.12549 14.6846 5.46123 15.0203 5.87539 15.0203ZM7.56738 14.2706C7.56738 13.9116 7.8584 13.6206 8.21738 13.6206H14.2246C14.5836 13.6206 14.8746 13.9116 14.8746 14.2706C14.8746 14.6296 14.5836 14.9206 14.2246 14.9206H8.21738C7.8584 14.9206 7.56738 14.6296 7.56738 14.2706ZM6.62529 10.9525C6.62529 11.3667 6.28955 11.7024 5.87539 11.7024C5.46123 11.7024 5.12549 11.3667 5.12549 10.9525C5.12549 10.5384 5.46123 10.2026 5.87539 10.2026C6.28955 10.2026 6.62529 10.5384 6.62529 10.9525ZM8.21738 10.3027C7.8584 10.3027 7.56738 10.5938 7.56738 10.9527C7.56738 11.3117 7.8584 11.6027 8.21738 11.6027H14.2246C14.5836 11.6027 14.8746 11.3117 14.8746 10.9527C14.8746 10.5937 14.5836 10.3027 14.2246 10.3027H8.21738Z" />
</svg>
