<svg width="24" height="24" viewBox="0 0 24 24" fill="none" xmlns="http://www.w3.org/2000/svg">
<g clip-path="url(#clip0_8566_139942)">
<path fill-rule="evenodd" clip-rule="evenodd" d="M7.64122 11.9005L4.14865 15.0099C3.44402 15.6372 3.02904 16.5277 3.00146 17.471C2.97387 18.4137 3.33847 19.3288 4.00592 19.9957C4.67277 20.6631 5.58549 21.0259 6.5288 20.9984C7.4721 20.9708 8.36263 20.5558 8.9899 19.8512L11.9853 16.4863L7.64122 11.9005ZM20.3186 20.3099C20.7617 19.8668 21.0082 19.2617 20.9998 18.635C20.9914 18.0077 20.7293 17.4104 20.2742 16.9793L10.371 7.59721C10.4375 7.31955 10.4723 7.0299 10.4723 6.73186C10.4723 4.67194 8.8004 3.00002 6.74109 3.00002C5.92132 3.00002 5.16272 3.26508 4.54684 3.71365C4.38253 3.83299 4.29018 4.02728 4.30097 4.22998C4.31177 4.43267 4.42392 4.61617 4.59962 4.71752L6.68472 5.92169C6.69072 5.92528 6.69551 5.93068 6.69731 5.93788C6.69911 5.94447 6.69791 5.95167 6.69431 5.95767L6.06825 7.0431C6.06466 7.04909 6.05865 7.05329 6.05206 7.05509C6.04486 7.05689 6.03767 7.05629 6.03167 7.05269L3.93096 5.83953C3.75585 5.73878 3.54237 5.73279 3.36246 5.82274C3.18196 5.91329 3.05903 6.0878 3.03565 6.28809C3.01825 6.43382 3.00926 6.58194 3.00926 6.73186C3.00926 8.79118 4.68117 10.4631 6.74109 10.4631C7.03913 10.4631 7.32878 10.4283 7.60703 10.3618L16.9885 20.2649C17.4197 20.7201 18.017 20.9822 18.6442 20.9906C19.2709 20.999 19.8748 20.7537 20.3186 20.3099ZM12.8926 8.5627L15.5055 11.0382L16.832 9.71169H18.2796C18.4979 9.71169 18.6982 9.59355 18.8043 9.40345L20.9242 5.58706C21.0544 5.35319 21.0136 5.06114 20.8241 4.87164L19.1282 3.17573C18.9387 2.98623 18.6466 2.94545 18.4128 3.07558L14.5964 5.19547C14.4063 5.30161 14.2881 5.50191 14.2881 5.72019V7.16783L12.8926 8.5627Z" fill="#11152A"/>
</g>
<defs>
<clipPath id="clip0_8566_139942">
<rect width="24" height="24" fill="white"/>
</clipPath>
</defs>
</svg>
