<svg viewBox="0 0 20 22" fill="none" xmlns="http://www.w3.org/2000/svg">
    <path d="M3.75 7C3.75 6.58579 3.41421 6.25 3 6.25C2.58579 6.25 2.25 6.58579 2.25 7H3.75ZM17.75 7C17.75 6.58579 17.4142 6.25 17 6.25C16.5858 6.25 16.25 6.58579 16.25 7H17.75ZM12.75 10C12.75 9.58579 12.4142 9.25 12 9.25C11.5858 9.25 11.25 9.58579 11.25 10H12.75ZM11.25 16C11.25 16.4142 11.5858 16.75 12 16.75C12.4142 16.75 12.75 16.4142 12.75 16H11.25ZM8.75 10C8.75 9.58579 8.41421 9.25 8 9.25C7.58579 9.25 7.25 9.58579 7.25 10H8.75ZM7.25 16C7.25 16.4142 7.58579 16.75 8 16.75C8.41421 16.75 8.75 16.4142 8.75 16H7.25ZM19 4.75C19.4142 4.75 19.75 4.41421 19.75 4C19.75 3.58579 19.4142 3.25 19 3.25V4.75ZM1 3.25C0.585786 3.25 0.25 3.58579 0.25 4C0.25 4.41421 0.585786 4.75 1 4.75V3.25ZM12.5937 1.8906L11.9697 2.30662L12.5937 1.8906ZM7.40627 1.8906L6.78223 1.47457L7.40627 1.8906ZM7 21.75H13V20.25H7V21.75ZM2.25 7V17H3.75V7H2.25ZM17.75 17V7H16.25V17H17.75ZM13 21.75C15.6234 21.75 17.75 19.6234 17.75 17H16.25C16.25 18.7949 14.7949 20.25 13 20.25V21.75ZM7 20.25C5.20507 20.25 3.75 18.7949 3.75 17H2.25C2.25 19.6234 4.37665 21.75 7 21.75V20.25ZM11.25 10V16H12.75V10H11.25ZM7.25 10L7.25 16H8.75L8.75 10H7.25ZM9.07037 1.75H10.9296V0.25H9.07037V1.75ZM11.9697 2.30662L13.376 4.41603L14.624 3.58397L13.2178 1.47457L11.9697 2.30662ZM14 3.25H6V4.75H14V3.25ZM6.62404 4.41603L8.0303 2.30662L6.78223 1.47457L5.37596 3.58397L6.62404 4.41603ZM14 4.75H19V3.25H14V4.75ZM6 3.25H1V4.75H6V3.25ZM10.9296 1.75C11.3476 1.75 11.7379 1.95888 11.9697 2.30662L13.2178 1.47457C12.7077 0.709528 11.8491 0.25 10.9296 0.25V1.75ZM9.07037 0.25C8.1509 0.25 7.29226 0.709528 6.78223 1.47457L8.0303 2.30662C8.26214 1.95888 8.65243 1.75 9.07037 1.75V0.25Z" fill="#2A313C"/>
</svg>
