<svg viewBox="0 0 61 61" fill="none" xmlns="http://www.w3.org/2000/svg">
    <ellipse cx="30.4997" cy="43.2082" rx="2.54167" ry="2.54167" fill="#000F1D"/>
    <path d="M5.8355 44.8157L4.09774 43.8257L4.09774 43.8257L5.8355 44.8157ZM55.1648 44.8157L53.4271 45.8058L53.4271 45.8058L55.1648 44.8157ZM35.6649 10.5884L37.4026 9.59834L35.6649 10.5884ZM25.3355 10.5884L27.0732 11.5784L27.0732 11.5784L25.3355 10.5884ZM32.5 22.8749C32.5 21.7704 31.6046 20.8749 30.5 20.8749C29.3954 20.8749 28.5 21.7704 28.5 22.8749H32.5ZM28.5 35.5833C28.5 36.6878 29.3954 37.5833 30.5 37.5833C31.6046 37.5833 32.5 36.6878 32.5 35.5833H28.5ZM33.9271 11.5784L53.4271 45.8058L56.9026 43.8257L37.4026 9.59834L33.9271 11.5784ZM50.0001 51.375H11.0002V55.375H50.0001V51.375ZM7.57326 45.8058L27.0732 11.5784L23.5977 9.59835L4.09774 43.8257L7.57326 45.8058ZM11.0002 51.375C7.94208 51.375 6.18809 48.2371 7.57326 45.8058L4.09774 43.8257C1.10734 49.0746 5.04849 55.375 11.0002 55.375V51.375ZM53.4271 45.8058C54.8122 48.2371 53.0582 51.375 50.0001 51.375V55.375C55.9518 55.375 59.893 49.0746 56.9026 43.8257L53.4271 45.8058ZM37.4026 9.59834C34.3844 4.30054 26.6159 4.30056 23.5977 9.59835L27.0732 11.5784C28.5571 8.97386 32.4432 8.97386 33.9271 11.5784L37.4026 9.59834ZM28.5 22.8749V35.5833H32.5V22.8749H28.5Z" fill="#000F1D"/>
</svg>
