<svg viewBox="0 0 18 22" fill="none" xmlns="http://www.w3.org/2000/svg">
    <path d="M13 5L13.75 5.00001V5H13ZM4.88595 2.62446C4.67854 2.983 4.80107 3.4418 5.15961 3.6492C5.51816 3.85661 5.97695 3.73409 6.18436 3.37554L4.88595 2.62446ZM10.25 14C10.25 14.6904 9.69036 15.25 9 15.25V16.75C10.5188 16.75 11.75 15.5188 11.75 14H10.25ZM9 15.25C8.30964 15.25 7.75 14.6904 7.75 14H6.25C6.25 15.5188 7.48122 16.75 9 16.75V15.25ZM7.75 14C7.75 13.3096 8.30964 12.75 9 12.75V11.25C7.48122 11.25 6.25 12.4812 6.25 14H7.75ZM9 12.75C9.69036 12.75 10.25 13.3096 10.25 14H11.75C11.75 12.4812 10.5188 11.25 9 11.25V12.75ZM5 7.75H13V6.25H5V7.75ZM16.25 11V17H17.75V11H16.25ZM13 20.25H5V21.75H13V20.25ZM1.75 17V11H0.25V17H1.75ZM5 20.25C3.20508 20.25 1.75 18.7949 1.75 17H0.25C0.25 19.6234 2.37665 21.75 5 21.75V20.25ZM16.25 17C16.25 18.7949 14.7949 20.25 13 20.25V21.75C15.6234 21.75 17.75 19.6234 17.75 17H16.25ZM13 7.75C14.7949 7.75 16.25 9.20507 16.25 11H17.75C17.75 8.37665 15.6234 6.25 13 6.25V7.75ZM5 6.25C2.37665 6.25 0.25 8.37665 0.25 11H1.75C1.75 9.20507 3.20507 7.75 5 7.75V6.25ZM12.25 4.99999L12.25 6.99999L13.75 7.00001L13.75 5.00001L12.25 4.99999ZM9.00003 1.75C10.795 1.75 12.25 3.20507 12.25 5H13.75C13.75 2.37665 11.6234 0.25 9.00003 0.25V1.75ZM6.18436 3.37554C6.74743 2.40216 7.79801 1.75 9.00003 1.75V0.25C7.24091 0.25 5.70612 1.20663 4.88595 2.62446L6.18436 3.37554Z" fill="#0A0E14"/>
</svg>
