<svg viewBox="0 0 16 20" fill="none" xmlns="http://www.w3.org/2000/svg">
    <path fill-rule="evenodd" clip-rule="evenodd" d="M5.18436 3.12554C5.74744 2.15216 6.79802 1.5 8.00003 1.5C9.79496 1.5 11.25 2.95507 11.25 4.75V6H4C1.79086 6 0 7.79086 0 10V16C0 18.2091 1.79086 20 4 20H12C14.2091 20 16 18.2091 16 16V10C16 8.04722 14.6007 6.42127 12.75 6.0702V4.75C12.75 2.12665 10.6234 0 8.00003 0C6.24092 0 4.70612 0.956634 3.88595 2.37446C3.67855 2.733 3.80107 3.1918 4.15961 3.3992C4.51816 3.60661 4.97696 3.48409 5.18436 3.12554ZM10 13C10 14.1046 9.10457 15 8 15C6.89543 15 6 14.1046 6 13C6 11.8954 6.89543 11 8 11C9.10457 11 10 11.8954 10 13Z" fill="#0A0E14"/>
</svg>
