<svg viewBox="0 0 18 16" fill="none" xmlns="http://www.w3.org/2000/svg">
    <path fill-rule="evenodd" clip-rule="evenodd" d="M17.3334 7V11.5C17.3334 13.7091 15.5426 15.5 13.3334 15.5H4.66675C2.45761 15.5 0.666748 13.7091 0.666748 11.5V4.5C0.666748 2.29086 2.45761 0.5 4.66675 0.5H6.00008C6.86556 0.5 7.7077 0.780712 8.40008 1.3L9.60008 2.2C10.2925 2.71929 11.1346 3 12.0001 3H13.3334C15.5426 3 17.3334 4.79086 17.3334 7ZM8.26351 7.95374C8.2989 7.91835 8.3362 7.88604 8.37508 7.85681V11.3333C8.37508 11.6785 8.6549 11.9583 9.00008 11.9583C9.34526 11.9583 9.62508 11.6785 9.62508 11.3333V7.85681C9.66396 7.88604 9.70126 7.91835 9.73665 7.95374L11.0581 9.27523C11.3022 9.5193 11.6979 9.5193 11.942 9.27523C12.1861 9.03115 12.1861 8.63542 11.942 8.39134L10.6205 7.06985C9.72558 6.1749 8.27458 6.1749 7.37963 7.06985L6.05814 8.39134C5.81406 8.63542 5.81406 9.03115 6.05814 9.27523C6.30222 9.5193 6.69795 9.5193 6.94202 9.27523L8.26351 7.95374Z" fill="#0A0E14"/>
</svg>
