<svg viewBox="0 0 20 20" fill="black" xmlns="http://www.w3.org/2000/svg">
    <path fill-rule="evenodd" clip-rule="evenodd" d="M8.33333 9.16667C10.1743 9.16667 11.6667 7.67428 11.6667 5.83333C11.6667 3.99238 10.1743 2.5 8.33333 2.5C6.49238 2.5 5 3.99238 5 5.83333C5 7.67428 6.49238 9.16667 8.33333 9.16667ZM8.33333 17.5C11.555 17.5 14.1667 16.0076 14.1667 14.1667C14.1667 12.3257 11.555 10.8333 8.33333 10.8333C5.11167 10.8333 2.5 12.3257 2.5 14.1667C2.5 16.0076 5.11167 17.5 8.33333 17.5ZM11.6345 9.01289C12.4284 8.18877 12.9167 7.0681 12.9167 5.8334C12.9167 5.24624 12.8063 4.68486 12.6051 4.1689C13.937 4.224 14.9999 5.32124 14.9999 6.66673C14.9999 8.04745 13.8807 9.16673 12.4999 9.16673C12.1957 9.16673 11.9042 9.11239 11.6345 9.01289ZM15.4166 14.1666C15.4166 14.6156 15.3168 15.0495 15.1308 15.4596C16.5528 15.0188 17.4999 14.2313 17.4999 13.3333C17.4999 12.0781 15.6499 11.039 13.2389 10.8604C14.5812 11.6944 15.4166 12.8674 15.4166 14.1666Z" />
</svg>
