<svg viewBox="0 0 20 20" fill="black" xmlns="http://www.w3.org/2000/svg">
    <path fill-rule="evenodd" clip-rule="evenodd" d="M4.99996 2.55182H7.91663C9.75757 2.55182 11.25 4.0442 11.25 5.88515V15.8852H8.74996C8.74996 14.2743 7.44412 12.9685 5.83329 12.9685C4.45316 12.9685 3.29755 13.9265 2.99428 15.2145C2.18788 14.6061 1.66663 13.6398 1.66663 12.5518V5.88515C1.66663 4.0442 3.15901 2.55182 4.99996 2.55182ZM7.49996 15.8852C7.49996 16.8056 6.75377 17.5518 5.83329 17.5518C4.91282 17.5518 4.16663 16.8056 4.16663 15.8852C4.16663 15.8502 4.1677 15.8154 4.16983 15.781C4.22361 14.909 4.94781 14.2185 5.83329 14.2185C6.75377 14.2185 7.49996 14.9647 7.49996 15.8852ZM16.6666 15.8852C16.6666 16.8056 15.9204 17.5518 15 17.5518C14.0795 17.5518 13.3333 16.8056 13.3333 15.8852C13.3333 14.9647 14.0795 14.2185 15 14.2185C15.9204 14.2185 16.6666 14.9647 16.6666 15.8852ZM15 12.9685C16.4351 12.9685 17.6281 14.005 17.8713 15.3702C18.1575 15.071 18.3333 14.6653 18.3333 14.2185V9.73221C18.3333 9.27152 18.1426 8.83139 17.8065 8.51631L15.4808 6.33592C15.1719 6.04632 14.7643 5.88515 14.3409 5.88515H12.5V14.382C13.0103 13.535 13.939 12.9685 15 12.9685Z" />
</svg>
