<svg viewBox="0 0 21 21" fill="black" xmlns="http://www.w3.org/2000/svg">
    <path fill-rule="evenodd" clip-rule="evenodd" d="M20.5 10.8271C20.5 16.35 16.0228 20.8271 10.5 20.8271C4.97715 20.8271 0.5 16.35 0.5 10.8271C0.5 5.3043 4.97715 0.827148 10.5 0.827148C16.0228 0.827148 20.5 5.3043 20.5 10.8271ZM9.5 15.8271C9.5 15.2749 9.94772 14.8271 10.5 14.8271C11.0523 14.8271 11.5 15.2749 11.5 15.8271C11.5 16.3794 11.0523 16.8271 10.5 16.8271C9.94772 16.8271 9.5 16.3794 9.5 15.8271ZM9.75 12.8271C9.75 13.2414 10.0858 13.5771 10.5 13.5771C10.9142 13.5771 11.25 13.2414 11.25 12.8271L11.25 5.82715C11.25 5.41293 10.9142 5.07715 10.5 5.07715C10.0858 5.07715 9.75 5.41293 9.75 5.82715L9.75 12.8271Z" />
</svg>
