<svg width="16" height="16" viewBox="0 0 16 16" fill="none" xmlns="http://www.w3.org/2000/svg">
    <path fill-rule="evenodd" clip-rule="evenodd" d="M7.20454 0.5H8.79546C9.6741 0.5 10.3864 1.17157 10.3864 2C10.3864 2.94801 11.4007 3.55074 12.2333 3.09748L12.3179 3.05145C13.0788 2.63723 14.0518 2.88305 14.4911 3.60049L15.2866 4.89952C15.7259 5.61696 15.4652 6.53435 14.7043 6.94856C13.8712 7.40203 13.8712 8.59797 14.7043 9.05144C15.4652 9.46565 15.7259 10.383 15.2866 11.1005L14.4911 12.3995C14.0518 13.117 13.0788 13.3628 12.3179 12.9486L12.2333 12.9025C11.4007 12.4493 10.3864 13.052 10.3864 14C10.3864 14.8284 9.6741 15.5 8.79546 15.5H7.20454C6.3259 15.5 5.61363 14.8284 5.61363 14C5.61363 13.052 4.5993 12.4493 3.76667 12.9025L3.6821 12.9486C2.92117 13.3628 1.94818 13.117 1.50887 12.3995L0.713408 11.1005C0.274089 10.383 0.5348 9.46566 1.29572 9.05145C2.12876 8.59798 2.12876 7.40202 1.29572 6.94855C0.534802 6.53434 0.27409 5.61695 0.713409 4.89951L1.50887 3.60048C1.94819 2.88304 2.92117 2.63722 3.6821 3.05144L3.76667 3.09747C4.5993 3.55073 5.61363 2.94801 5.61363 2C5.61363 1.17157 6.3259 0.5 7.20454 0.5ZM8.00001 10.5C9.38072 10.5 10.5 9.38071 10.5 8C10.5 6.61929 9.38072 5.5 8.00001 5.5C6.6193 5.5 5.50001 6.61929 5.50001 8C5.50001 9.38071 6.6193 10.5 8.00001 10.5Z" fill="#140A0A"/>
</svg>
